<svg version="1.1" xmlns="http://www.w3.org/2000/svg" viewBox="0 0 844.2963073030455 317.0850179051059" width="844.2963073030455" height="317.0850179051059">
  <!-- svg-source:excalidraw -->
  
  <defs>
    <style>
      @font-face {
        font-family: "Virgil";
        src: url("https://excalidraw.com/Virgil.woff2");
      }
      @font-face {
        font-family: "Cascadia";
        src: url("https://excalidraw.com/Cascadia.woff2");
      }
    </style>
  </defs>
  <rect x="0" y="0" width="844.2963073030455" height="317.0850179051059" fill="#ffffff"></rect><g stroke-linecap="round" transform="translate(25.890956984898082 176.96165694229472) rotate(0 43.41160874645456 24.76858658540047)"><path d="M1.52 0.04 C20.77 -0.57, 44.36 0.46, 84.9 0.24 M0.97 -0.11 C24.16 0.23, 46.1 1.16, 87.51 -0.18 M88.69 1.76 C87.31 11.41, 88.26 21.68, 87.47 51.52 M86.63 0.69 C87.58 13.1, 87.65 25.82, 86.72 49.39 M87.57 48.73 C61.6 47.97, 33.56 47.74, -1.65 48.09 M86.65 50.43 C67.12 48.63, 48.32 48.79, 0.3 50.27 M0.24 48.43 C-0.35 37.29, -0.96 23.14, -1.96 -1.01 M0.75 49.43 C-0.52 36.69, 0.08 22.96, -0.07 -0.64" stroke="#000000" stroke-width="1" fill="none"></path></g><g stroke-linecap="round" transform="translate(21.097037000625335 170.56976362993117) rotate(0 48.20552873072563 30.627822121731754)"><path d="M0.04 -0.53 C20.45 1.04, 41.8 -2.65, 96.65 -0.63 M-0.11 0.83 C33.36 -1.49, 67.71 -0.24, 96.24 -0.76 M98.17 0.14 C97.27 23.79, 96.42 46.06, 98.4 60.46 M97.1 0.76 C96.32 19.22, 96.15 36.69, 96.27 61.37 M95.61 63.08 C69.5 62.45, 44.07 59.97, -1.45 59.8 M97.3 61.27 C67.03 62.02, 38.08 61.39, 0.73 60.78 M-1.11 60.66 C0.27 44.64, -1.35 28.46, -1.01 -0.56 M-0.11 61.07 C0.2 39.18, -0.05 16.21, -0.64 0.84" stroke="#000000" stroke-width="1" fill="none"></path></g><g stroke-linecap="round"><g transform="translate(26.15728587291005 236.53055156166005) rotate(0 2.3421182641466487 0.10906423026898437)"><path d="M-0.13 0.03 C2.34 0.29, 3.32 0.06, 4.82 0.23 M0.21 -0.01 C1.19 0.22, 2.83 -0.04, 4.78 0.18" stroke="#000000" stroke-width="4" fill="none"></path></g></g><g stroke-linecap="round"><g transform="translate(67.7045924032621 236.17544637764053) rotate(0 2.594800518409471 0.11946820888471166)"><path d="M0.03 0.44 C2.16 -0.46, 3.8 -0.14, 5.2 -0.16 M-0.01 -0.14 C2.19 0.13, 3.9 -0.23, 5.15 0.22" stroke="#000000" stroke-width="4" fill="none"></path></g></g><g stroke-linecap="round"><g transform="translate(46.39828136205847 236.17544637764053) rotate(0 2.528549108498197 0.2880458923940523)"><path d="M0.44 0.29 C1.02 0.06, 2.85 0.23, 4.81 0.48 M-0.14 0.22 C1.61 -0.04, 2.68 0.18, 5.19 0.23" stroke="#000000" stroke-width="4" fill="none"></path></g></g><g stroke-linecap="round"><g transform="translate(87.94558789240568 235.82034119362032) rotate(0 2.8352730729431244 -0.12925275466335506)"><path d="M0.29 -0.48 C1.42 -0.2, 2.95 -0.21, 5.45 -0.06 M0.22 0.17 C1.86 -0.16, 3.98 0.25, 5.2 0.22" stroke="#000000" stroke-width="4" fill="none"></path></g></g><g stroke-linecap="round"><g transform="translate(36.45533620949391 236.53055156166096) rotate(0 2.3564835334771885 0.18633671358600168)"><path d="M-0.48 0.06 C1.37 0.2, 2.89 0.45, 4.92 0.41 M0.17 -0.04 C1.28 0.13, 3.15 0.19, 5.19 0.02" stroke="#000000" stroke-width="4" fill="none"></path></g></g><g stroke-linecap="round"><g transform="translate(78.002642739843 236.17544637763905) rotate(0 2.6704430467052305 -0.029051602724507575)"><path d="M0.06 -0.16 C2.16 -0.11, 4.35 -0.01, 5.38 -0.03 M-0.04 -0.19 C1.39 0.19, 2.66 0.18, 4.99 0.04" stroke="#000000" stroke-width="4" fill="none"></path></g></g><g stroke-linecap="round"><g transform="translate(56.69633169863903 236.17544637763996) rotate(0 2.410468628167962 0.0414543616541323)"><path d="M-0.16 0.23 C1.62 0.47, 3.51 0.41, 4.94 -0.28 M-0.19 0.18 C2.15 0.24, 4.08 0.03, 5.01 0.14" stroke="#000000" stroke-width="4" fill="none"></path></g></g><g stroke-linecap="round"><g transform="translate(98.24363822899085 235.82034119362032) rotate(0 2.6412541264483593 0.13751164887685263)"><path d="M0.23 -0.16 C1.49 -0.04, 2.44 -0.01, 4.7 0.44 M0.18 0.22 C2.07 0.26, 3.69 0.08, 5.11 -0.07" stroke="#000000" stroke-width="4" fill="none"></path></g></g><g stroke-linecap="round"><g transform="translate(108.18658338155075 236.17544637764053) rotate(0 2.623247937017368 0.2751057028830246)"><path d="M-0.16 0.48 C1.5 0.39, 3.08 -0.3, 5.41 0.34 M0.22 0.23 C1.62 -0.02, 2.85 0.1, 4.9 0.08" stroke="#000000" stroke-width="4" fill="none"></path></g></g><g stroke-linecap="round"><g transform="translate(31.483863633213275 241.85712932195946) rotate(0 2.7730409985327356 0.07985934446060128)"><path d="M0.48 -0.06 C1.75 -0.01, 2.4 0.45, 5.31 -0.09 M0.23 0.22 C1.13 -0.01, 2.37 -0.11, 5.05 0.25" stroke="#000000" stroke-width="4" fill="none"></path></g></g><g stroke-linecap="round"><g transform="translate(22.60623403271228 241.85712932196128) rotate(0 2.5813614161228315 0.01820184909843192)"><path d="M-0.06 0.41 C1.7 -0.32, 3.88 0.3, 4.88 -0.38 M0.22 0.02 C1.88 0.09, 3.62 0.03, 5.22 -0.1" stroke="#000000" stroke-width="4" fill="none"></path></g></g><g stroke-linecap="round"><g transform="translate(73.03117016356293 241.50202413794153) rotate(0 2.4446278798154992 0.16225359993194388)"><path d="M0.41 -0.03 C1.05 0.44, 3 -0.08, 4.59 0.35 M0.02 0.04 C2.07 -0.11, 3.96 0.2, 4.87 0" stroke="#000000" stroke-width="4" fill="none"></path></g></g><g stroke-linecap="round"><g transform="translate(51.72485912235584 241.50202413794153) rotate(0 2.647989888072459 0.08562564071536372)"><path d="M-0.03 -0.28 C2.41 0.3, 3.86 -0.42, 5.32 0.45 M0.04 0.14 C1.89 0.08, 4.16 -0.1, 4.97 -0.13" stroke="#000000" stroke-width="4" fill="none"></path></g></g><g stroke-linecap="round"><g transform="translate(93.27216565270555 241.14691895392212) rotate(0 2.571361928855879 0.19780964275173574)"><path d="M-0.28 0.44 C1.78 -0.08, 2.49 0.35, 5.42 0.46 M0.14 -0.07 C2.01 0.24, 3.76 -0.01, 4.84 -0.05" stroke="#000000" stroke-width="4" fill="none"></path></g></g><g stroke-linecap="round"><g transform="translate(41.78191396979503 241.85712932196128) rotate(0 2.6835459308922793 0.18171330840931432)"><path d="M0.44 0.34 C1.82 -0.35, 4.16 0.47, 5.43 0.44 M-0.07 0.08 C1.77 -0.13, 3.05 -0.16, 4.92 0.17" stroke="#000000" stroke-width="4" fill="none"></path></g></g><g stroke-linecap="round"><g transform="translate(83.32922050014622 241.5020241379404) rotate(0 2.7447715535162445 0.09211326782406104)"><path d="M0.34 -0.09 C1.09 0.31, 3.38 0.42, 5.41 0.03 M0.08 0.25 C1.47 0.01, 3.01 -0.03, 5.14 0.19" stroke="#000000" stroke-width="4" fill="none"></path></g></g><g stroke-linecap="round"><g transform="translate(62.02290945893958 241.50202413793983) rotate(0 2.53646625865386 -0.04574930895228135)"><path d="M-0.09 -0.38 C1.57 0.41, 2.9 0.4, 5.01 0.08 M0.25 -0.1 C1.76 -0.14, 3.48 0.16, 5.16 0.05" stroke="#000000" stroke-width="4" fill="none"></path></g></g><g stroke-linecap="round"><g transform="translate(103.5702159892898 241.1469189539219) rotate(0 2.335200968195352 0.1751271952729212)"><path d="M-0.38 0.35 C2.38 0.47, 4.3 0.04, 5.05 0.27 M-0.1 0 C1.23 -0.1, 2.89 0.14, 5.03 0.2" stroke="#000000" stroke-width="4" fill="none"></path></g></g><g stroke-linecap="round"><g transform="translate(113.51316114185033 241.50202413794108) rotate(0 2.62153733577253 0.1559655455672555)"><path d="M0.35 0.45 C2.3 0.48, 3.7 0.11, 5.24 -0.13 M0 -0.13 C1.6 0.19, 3.49 0.07, 5.18 0.01" stroke="#000000" stroke-width="4" fill="none"></path></g></g><g stroke-linecap="round"><g transform="translate(36.81044139351553 247.18370708226126) rotate(0 2.428997856610664 0.2075689693717777)"><path d="M0.45 0.46 C1.84 0, 2.88 0.24, 4.84 0.16 M-0.13 -0.05 C2.16 0.19, 4.03 0.2, 4.99 -0.03" stroke="#000000" stroke-width="4" fill="none"></path></g></g><g stroke-linecap="round"><g transform="translate(27.932811793011922 247.18370708226263) rotate(0 2.5423418149335077 0.22910144154451473)"><path d="M0.46 0.44 C1.15 0.03, 2.5 -0.18, 5.13 0.49 M-0.05 0.17 C1.48 0.08, 2.79 0.04, 4.95 -0.04" stroke="#000000" stroke-width="4" fill="none"></path></g></g><g stroke-linecap="round"><g transform="translate(98.59874341300713 246.47349671422245) rotate(0 2.81836581673619 -0.004722858227580673)"><path d="M0.44 0.03 C1.92 0.22, 3.55 0.11, 5.47 -0.2 M0.17 0.19 C1.55 0.21, 3 -0.02, 4.94 0.03" stroke="#000000" stroke-width="4" fill="none"></path></g></g><g stroke-linecap="round"><g transform="translate(51.986909536012206 247.5957196258094) rotate(0 18.540824127149023 -0.42564373465262406)"><path d="M0.14 0.3 C15.44 -1.17, 29.35 1.06, 36.03 -0.76 M0.76 0.22 C9.97 -0.39, 18.2 -0.78, 36.94 -1.16" stroke="#000000" stroke-width="4" fill="none"></path></g></g><g stroke-linecap="round"><g transform="translate(108.8967937495899 246.47349671422347) rotate(0 2.513888310363427 0.007196679326909816)"><path d="M0.08 0.27 C1.82 0.16, 4.4 -0.2, 4.97 -0.26 M0.05 0.2 C1.41 -0.06, 2.76 -0.01, 4.88 0.04" stroke="#000000" stroke-width="4" fill="none"></path></g></g><g stroke-linecap="round"><g transform="translate(11.081326119164373 254.2104728868814) rotate(0 61.49043858262863 -12.49847175955091)"><path d="M1.09 -3.07 C48.18 -0.73, 94.27 -2.71, 121.48 -2.92 M0.82 -2.47 C45.1 -2.95, 90.51 -3.19, 122.68 -2.16 M123.34 -4.47 C117.09 -9.08, 113.68 -12.57, 107.2 -22.05 M123.44 -2.65 C117.42 -9.31, 111.26 -17.98, 108.68 -21.59 M107.46 -23.05 C82.85 -22.71, 60.4 -20.49, 12.59 -20.74 M109.08 -21.33 C80.42 -21.88, 53.15 -22.1, 10.24 -22.16 M12.51 -21.01 C6.15 -14.58, 3.27 -9.74, 1.57 -3.77 M10.85 -22.31 C7.55 -15.43, 3.97 -10.47, -0.46 -2.9" stroke="#000000" stroke-width="1" fill="none"></path></g></g><g stroke-linecap="round" transform="translate(10 250.73475892246296) rotate(0 61.25564424346348 1.2428681440702576)"><path d="M-0.54 0.65 C39.59 -1.47, 75.2 -1.7, 122.13 1.38 M0.06 -0.1 C45.91 -0.89, 91.72 -0.85, 122.89 -0.4 M122.27 -0.21 C122.31 0.79, 122.49 1.76, 122.47 2.71 M122.5 0.04 C122.6 0.69, 122.44 1.5, 122.53 2.42 M121.17 0.53 C88.38 1.19, 57.61 3.15, 1.5 2.27 M122.89 2.42 C87.43 3.83, 52.94 2.05, 0.09 2.71 M0.15 2.3 C0.16 1.53, -0.03 0.97, -0.15 0.02 M-0.01 2.47 C0.1 1.76, -0.04 1.05, -0.05 0.09" stroke="#000000" stroke-width="1" fill="none"></path></g><g stroke-linecap="round"><g transform="translate(468.7298449948681 10.155456254514831) rotate(0 -40.88140797866771 65.41142667576324)" fill-rule="evenodd"><path d="M-90.57 21.97 C-90.57 21.97, -90.57 21.97, -90.57 21.97 M-90.57 21.97 C-90.57 21.97, -90.57 21.97, -90.57 21.97 M-100.19 39.86 C-98.24 33.55, -89.08 29.08, -74.17 10.65 M-102.71 41.05 C-92.77 29.81, -84.24 20.84, -75.16 9.48 M-104.61 52.48 C-92.99 34.91, -78.86 22.62, -67.78 6.06 M-105.79 51.57 C-93.68 35.67, -80.65 21.28, -66.68 6.45 M-106.04 58.81 C-91.63 41.79, -76.77 25.28, -57.32 0.69 M-105.1 58.19 C-92.46 41.51, -79.72 27.5, -57.65 1.85 M-106.91 64.2 C-101.79 56.13, -92.79 48.9, -75.08 29.35 M-107.66 64.76 C-95.68 51.12, -83.53 39.01, -75.75 30.79 M-74.72 27.85 C-64.18 16.11, -55.88 9.3, -52.27 2.65 M-74.91 28.58 C-66.18 19, -57.37 9.79, -51.74 1.53 M-106.83 71.01 C-101.18 63.33, -94.04 54.53, -77.47 36.61 M-107.82 71.82 C-100.39 63.01, -91.81 53.45, -78.23 36.45 M-71.65 30.93 C-64.39 23.85, -61.78 17.36, -47.33 2.11 M-70.35 28.91 C-61.07 17.94, -52.42 6.88, -46.69 2.75 M-106.28 77.57 C-101.69 70.63, -94.3 64.32, -76.78 43.24 M-105.49 76.43 C-97.12 67.13, -89.84 58.14, -77.93 44.21 M-66.73 31.99 C-59.44 23.05, -56.78 18.78, -39.76 -0.64 M-65.66 30.93 C-55.85 19.49, -46.99 8.14, -41.23 0.48 M-104.19 82.69 C-95.79 72.28, -90.31 64.66, -79.31 53.21 M-105.43 82.46 C-101.26 75.77, -95.43 68.64, -80.62 54.51 M-62.74 31.03 C-50.31 20.8, -41.19 8.48, -34.03 2.06 M-61.46 31.44 C-52.98 20.93, -41.87 8.72, -35.81 1.08 M-103.49 87.75 C-96.79 78.95, -88.86 69.23, -83.48 60.28 M-104.96 86.37 C-99.43 80.32, -93.14 75.14, -83.75 62.58 M-58.42 34.81 C-49.71 23.12, -38.05 8.62, -30.67 -0.13 M-57.89 33.06 C-51.3 25.11, -43.92 15.78, -29.51 0.95 M-104.43 90.69 C-97.74 87.64, -94.09 82.43, -82.93 69.29 M-103.24 91.21 C-98.41 87.81, -94.96 82.22, -83.48 67.77 M-53.22 33.68 C-46.94 27.74, -40.71 21.55, -27.45 3.55 M-53.32 35.02 C-43.22 21.2, -32.17 9.55, -25.16 1.64 M-101.25 94.26 C-96.56 91.32, -91.88 84.73, -83.96 72.66 M-101.93 94.88 C-93.83 88.43, -87.3 79.86, -82.21 74.01 M-49.83 32.54 C-37.26 21.03, -28.44 12.17, -21.52 5.67 M-48.88 34.13 C-40.93 25.52, -34.33 17.54, -21.5 4.5 M-100.14 100.27 C-94.3 91.91, -87.59 83.39, -79.5 76.6 M-99.21 98.37 C-91.43 90.15, -85.5 82.34, -80.47 78.12 M-44.92 33.37 C-36.69 24.07, -26.59 13.44, -18.63 6.59 M-43.25 33.32 C-35.16 24.84, -28.32 15.61, -16.41 4.75 M-96.71 102.76 C-94.95 101.15, -93.77 99.99, -89.62 94.57 M-98.06 102.86 C-96.06 101.46, -94.85 99.32, -90.63 94.87 M-90.23 95.5 C-87.17 90.72, -83.96 86.36, -78.37 81.42 M-89.77 94.21 C-86.77 90.16, -82.52 87.23, -79.76 82.15 M-37.52 31.86 C-30.59 25.83, -26.29 20.19, -13.89 5.57 M-37.38 33.94 C-30.36 26.72, -25.24 20.29, -13.42 6.68 M-95.07 106.15 C-93.18 102.56, -90.21 100.12, -87.99 96.94 M-94.7 106.1 C-92.27 103.84, -89.87 99.66, -87.43 98.15 M-84.51 94.37 C-82.43 91.11, -81.32 89.93, -76.42 85.05 M-83.89 93.86 C-81.85 91.62, -80.22 90.38, -76.56 85.51 M-30.14 34.68 C-22.92 25.22, -17.74 19.27, -9.3 9.06 M-30.95 33.24 C-23.57 24.37, -16.22 16.94, -10.76 9.44 M-92.97 109.75 C-91.27 106.8, -88.7 103.84, -84.43 101.4 M-92.72 108.83 C-90.46 107.27, -87.91 105.34, -84.28 100.46 M-81.24 96.38 C-78.11 93.56, -76.81 91.85, -74.94 89.61 M-80.24 96.11 C-77.95 93.27, -75.49 90.4, -74.58 89.15 M-28.42 34.08 C-21.25 28.88, -16.32 21.48, -6.94 11.33 M-27 33.71 C-20.92 25.94, -12.61 18.84, -6.2 8.93 M-89.48 111.5 C-88.4 109.19, -85.86 106.53, -82.04 102.4 M-89.46 113.02 C-87.66 110.9, -85.99 108.97, -81.46 104.07 M-77.37 99.52 C-75.11 97.02, -73.83 93.58, -70.63 91.94 M-77.9 99.46 C-75.36 96.47, -73.18 92.49, -71.43 91.51 M-19.44 34.63 C-15.5 25.02, -11.33 18.96, -1.03 12.34 M-21.93 33.72 C-16.43 27.96, -10.3 22.21, -3.32 13.17 M-86.34 114.73 C-84.58 112.18, -82.14 110.71, -80.16 106.91 M-86.68 115.05 C-84.64 112.63, -81.61 109.25, -80.69 107.32 M-75.52 103.42 C-73.36 100.41, -70.81 97.41, -68.4 93.58 M-75.57 102.97 C-72.8 99.63, -70.62 95.29, -67.69 93.68 M-10.45 30.17 C-7.27 22.43, -1.85 17.42, 0.58 16.23 M-11.94 27.76 C-7.94 24.4, -5.1 21.61, 0.97 15.73 M-84.93 117.78 C-82.01 116.05, -79.77 113.12, -77.89 111.92 M-84.43 118.87 C-81.72 116.19, -79.15 113.07, -78.37 110.86 M-71.67 105.36 C-70.08 101.99, -67.71 99.85, -64.87 95.71 M-72.21 104.94 C-70.36 102.38, -68.72 100.77, -63.79 94.92 M-6.65 26.87 C-3.99 23.46, -0.42 21.14, 4.91 17.66 M-5.88 28.46 C-3.08 24.63, 0.86 20.5, 3.67 16.98 M-81.33 120.29 C-79.73 118.29, -78.33 117.64, -74.43 113.25 M-81.01 120.45 C-78.83 117.85, -76.53 115.96, -74.73 114.14 M-69.79 108.07 C-66.14 104.77, -65.66 101.85, -60.36 95.33 M-69.3 106.89 C-66.88 103.49, -63.93 101.03, -59.18 95.99 M-5.1 30.87 C-2.42 27.95, 0.99 25.14, 5.87 21.15 M-4.29 32.23 C-1.84 29.9, 0.73 26.62, 6.97 20.11 M-76.96 123.07 C-75.79 119.38, -72.48 115.57, -70.45 114.52 M-77.41 123.65 C-75.44 120.65, -73.76 118.6, -70.96 114.85 M-65.46 106.9 C-59.76 104.23, -56.65 99.91, -53.87 97.62 M-64.15 107.67 C-61.45 104.38, -58.73 101.46, -54.12 96.08 M-3.33 38.38 C0.46 31.37, 2.63 28.26, 8.16 22.76 M-3.22 36.17 C2.49 32.02, 7.15 24.77, 10.08 22.09 M-75.83 125.66 C-71.61 122.01, -69.27 119.16, -67.29 115.62 M-74.48 125.58 C-71.41 122.24, -69.05 119.01, -66.85 115.45 M-3.75 43.59 C-0.15 40.28, 4.44 35.74, 14.05 24.1 M-4.14 44.11 C-0.58 41.13, 2.13 35.35, 11.54 26.35 M-70.77 128.11 C-66.56 122.73, -64.18 120.03, -60.07 116.56 M-71.92 128.02 C-68.21 124.17, -65.6 120.02, -60.56 115.79 M-2.9 48.81 C2.86 41.82, 7.89 39.6, 15.74 29.08 M-2.64 47.77 C2.98 43.63, 7.19 36.74, 15.69 27.83 M-65.85 129.75 C-64.19 126.1, -61.36 120.14, -55.65 116.59 M-66.42 128.71 C-63.71 125.73, -61.07 122.53, -56.29 116.51 M0.21 51.8 C5.64 47.55, 11.23 41.79, 17.73 32.77 M-0.69 51.21 C3.74 47.9, 8.11 44.32, 17 32.86 M-62.41 130.93 C-61.02 128.65, -58.02 126.12, -57.49 123.65 M-63.52 130.93 C-60.51 127.95, -58.85 125.3, -56.48 123.34 M-0.09 55.53 C7.91 50.93, 10.28 44.26, 18.56 35.02 M1.57 56.84 C5.76 51.29, 9.27 48.36, 19.4 36.63 M-28.61 97.03 C-28.61 97.03, -28.61 97.03, -28.61 97.03 M-28.61 97.03 C-28.61 97.03, -28.61 97.03, -28.61 97.03 M3.85 60.27 C10.19 51.84, 18.07 46.57, 19.49 40.29 M1.75 61.43 C7.14 57.53, 10.48 50.88, 21.01 38.96 M-26.5 99.98 C-25.29 98.52, -23.88 97.73, -23.1 96.59 M-26.11 100.2 C-25.13 99.03, -24.03 97.86, -22.94 96.52 M3.73 69.64 C9.7 61.37, 15.75 53.1, 21.82 44.08 M2.03 68.08 C7.54 61.93, 12.98 55.18, 21.43 44.75 M-22.91 105.03 C-19.54 98.97, -17.16 96.67, -14.89 92.04 M-23.45 103.64 C-20.72 100.56, -18.4 96.96, -14.54 93.31 M-0.11 73.27 C6.08 70.53, 13.08 60.66, 23.47 47.69 M1.67 74.97 C9.86 65.11, 17.89 55.31, 24.36 48.72 M-22.15 107.79 C-10.48 96.01, 3.31 81.14, 26.68 54.97 M-22.65 108.44 C-8.9 92.13, 7.4 73.36, 24.33 54.12 M-24.48 114.72 C-2.83 94.44, 13.79 73, 26.85 57.65 M-22.77 115.21 C-13.41 104.36, -2.49 92.91, 27.46 56.88 M-24.28 119.89 C-11.27 107.02, 5.83 87.84, 24.52 64.46 M-23.05 120.5 C-5.22 100.87, 12.06 80.2, 26.8 64.38 M-24.16 127.51 C-6.83 109.35, 8.77 90.65, 26.27 71.52 M-24.18 128.95 C-10.23 112.16, 4.23 95.42, 25.77 70.26 M-21.73 129.87 C-4.27 110.28, 10.18 92.04, 27.04 74.94 M-20.96 131.66 C-7.01 116.64, 6.59 99.84, 26.18 76.34 M-13.16 130.83 C-4.02 115.26, 10.07 101.93, 23.74 83.79 M-14.26 129 C0.72 113.02, 14.36 96.93, 23.49 84.88 M-4.42 126.4 C2.69 114.19, 14.32 102.58, 19.22 96.35 M-4.49 124.47 C0.03 118.49, 4.67 113.5, 20.57 96.21 M-84.27 118.28 C-84.27 118.28, -84.27 118.28, -84.27 118.28 M-84.27 118.28 C-84.27 118.28, -84.27 118.28, -84.27 118.28 M-66.86 130.19 C-77.09 119.37, -88.61 109.78, -98.78 99.52 M-66.86 127.57 C-74.1 123.13, -80.81 116.88, -98.19 102.15 M-58.42 131.44 C-70.96 118.1, -86.42 103.89, -100.81 94.2 M-58.03 130.06 C-70.81 119.39, -81.9 110.52, -102.4 92.77 M-56.95 127.09 C-61.58 121.73, -64.68 118.63, -71.13 114.13 M-57.18 125.12 C-61.19 121.84, -64.01 119.63, -70.32 114.18 M-81.67 104.42 C-86.26 98.1, -94.51 94.08, -104.42 86.86 M-81.72 105.19 C-88.23 98.93, -95.82 91.06, -103.88 85.75 M-57.59 120.51 C-58.7 118.43, -61.02 116.07, -63.84 114.64 M-57.06 120.9 C-58.22 119.28, -59.61 118.35, -63.43 115.25 M-88.47 92.98 C-95.33 89.25, -98.81 85.79, -107.7 75.8 M-88.29 92.51 C-95.08 87.95, -100.06 82.09, -106.23 78.24 M-67.79 107.04 C-83.66 94.01, -96.35 80.49, -105.77 70.52 M-67.29 106.3 C-82.73 93.89, -98.94 78.87, -107.91 71.96 M-60.12 107.41 C-74.27 96.18, -87.41 83.44, -107.99 64.14 M-60.38 107.11 C-76.27 92.41, -93.83 79.36, -107.25 65.06 M-55.44 106.02 C-77.77 87.88, -96.32 70.66, -106.31 60.84 M-57.05 104.62 C-72.44 90.86, -87.33 77.02, -107.35 62.08 M-21.68 130.02 C-22.27 129.22, -23.5 128.82, -24.19 128.53 M-21.72 130.18 C-22.52 129.49, -23.42 128.64, -23.99 128.23 M-55.52 100.58 C-57.61 98.44, -59.11 97.96, -63.51 93.91 M-55.72 101.18 C-57.35 98.57, -59.53 96.83, -64.44 93.6 M-78.65 78.56 C-88.23 74.02, -90.58 69.84, -108.27 57.49 M-80.76 79.12 C-89.75 71.27, -97.59 63.46, -106.53 56.99 M-17.79 128.92 C-19.51 125.82, -21.99 125, -24.22 123.58 M-16.63 129.34 C-18.99 127.17, -22.23 124.61, -24.02 122.33 M-54.01 97.11 C-54.2 96.6, -54.57 96.25, -55.53 95.53 M-53.79 97.1 C-54.3 96.55, -54.81 96.19, -55.35 95.64 M-80.61 73.73 C-86.8 65.33, -94.02 62.6, -106.74 53.43 M-82.6 71.72 C-90.58 66.27, -97.26 58.59, -104.62 53.39 M-11.26 128.33 C-15.4 124.5, -16.74 122.74, -23.3 118.1 M-13.35 127.01 C-15.51 124.2, -19.88 122.11, -23.92 117.11 M-84.28 63.78 C-88.23 60.83, -94.94 57, -102.62 48.78 M-84.53 66.5 C-88.04 60.72, -93.25 58.17, -103.76 47.18 M-10.25 123.72 C-13.36 121.85, -17.55 117.18, -25.31 110.82 M-10.29 125.05 C-13.5 120.8, -16.25 118.88, -24.83 112.83 M-84.23 59.5 C-91.76 54.68, -98.47 48.53, -105.21 43.11 M-84.19 60.75 C-89.03 56.89, -93.85 51.32, -102.72 42.55 M-6 123.51 C-14.53 115.9, -20.26 110.19, -22.48 108.55 M-6.08 123.71 C-8.99 119.79, -13.38 115.31, -24.31 107.55 M-84.03 56.66 C-86.64 50.97, -88.96 50.41, -100.49 37.74 M-83.19 56.47 C-88.79 50.68, -95.55 45.97, -101.15 38.43 M-3.54 121.76 C-6.86 117.79, -12.34 111.57, -27.97 99.84 M-2.47 120.63 C-8.5 116.16, -14.44 111.22, -25.93 99.36 M-82.58 53.37 C-87.51 45.59, -93.56 40.75, -99.51 35.02 M-80.99 52.04 C-85.61 48.3, -90.94 43.61, -99.3 35.83 M0.62 118.55 C-7.92 110.01, -16.86 103.31, -26.2 94.6 M2.42 118.9 C-4.69 113.11, -10.34 108.07, -24.82 96.12 M-80.59 47.33 C-86.9 43.25, -93.56 36.47, -97.13 30.92 M-79.39 47.47 C-83.54 45.24, -87.9 40.03, -98.77 32.43 M3.09 116.94 C-1.57 110.38, -7.3 103.26, -21.43 93.11 M4.12 115.67 C-1.66 110.61, -10.16 103.79, -20.49 94.05 M-74.81 45.93 C-81.6 41.48, -86.82 38.76, -96.77 30.37 M-76.77 44.49 C-80.74 41.27, -85.78 37.51, -95.23 29.87 M9.47 114.27 C0.27 106.83, -10.12 97.95, -14.52 93.37 M7.58 113.38 C-0.82 104.95, -9.39 97.61, -15.58 93.15 M-77.86 38.92 C-82.79 36.05, -84.51 33.8, -93.43 24.66 M-77.89 39.2 C-80.82 36.74, -84.59 33.69, -93.49 25.2 M9 109.57 C1.09 103.78, -4.56 95.35, -12.35 92.29 M9.88 111.19 C3.17 103.82, -1.69 100.12, -11.29 90.35 M-76 34.81 C-81.75 29.79, -87.55 24.2, -92.25 23.84 M-77.53 34.55 C-80.37 31.91, -84.23 29.37, -90.23 21.52 M11.91 108.16 C7.85 101.74, 0.15 95.59, -6.64 87.77 M13.52 107.58 C7.34 102.99, 0.45 97.3, -8.16 89.62 M-76.99 30.42 C-80.99 24.59, -85.89 23.81, -86.97 20.56 M-77.14 29.87 C-80.99 25.03, -85.71 21.35, -88.79 19.03 M14.32 103.01 C8.56 98.89, 2.69 91.2, -6.89 85.35 M15.42 103.71 C7.78 97.33, -0.18 91.46, -5.09 86.55 M-71.78 26.84 C-76.57 25.42, -79.04 20.6, -84.58 17.58 M-72.8 27.98 C-76.32 24.21, -80.48 19.78, -84.92 16.8 M18.32 98.74 C10.74 94.52, 2.88 88.96, -3.45 83.56 M16.88 101.44 C10.78 94.22, 5.38 90.73, -2.31 83.82 M-61.73 31.98 C-68.35 25.22, -76.16 18.21, -82.53 14.86 M-62.91 32.64 C-67.18 27.75, -72.7 22.78, -82.24 13.31 M18.16 97.6 C14.62 90.29, 6.51 87.42, -1.19 79.9 M19.88 97.26 C12.36 90.65, 3.68 84.21, -1.15 79.05 M-53.36 32.1 C-61.08 28.64, -67.08 24.1, -79.19 11.78 M-54.12 33.61 C-61.09 26.45, -70.12 19.47, -78.9 10.98 M22.05 93.51 C13.43 87.18, 10.48 83.01, -0.33 74.19 M20.79 92.38 C12.81 85.7, 4.08 80.36, 1.22 76.26 M-48.6 32.65 C-55.16 26.68, -62.76 19.75, -76.59 10.33 M-49.94 33.16 C-57 24.39, -64.57 18.09, -76 9.51 M20.89 88.67 C16.79 83.16, 9.79 78.45, 0.38 69.2 M23.14 89.33 C15.73 84.54, 10.06 78.84, 2.54 70.41 M-45.45 32.1 C-52.33 25.19, -58.45 15.33, -73.4 5.29 M-44.24 30.36 C-51.22 24.22, -58.77 18.95, -72.73 6.68 M23.48 84.98 C16.6 76.85, 7.26 70.63, 1.34 64.72 M24.86 85.34 C15.65 78.48, 7.64 69.99, 1.2 65.55 M-36.21 32.59 C-49.23 22.48, -59.22 10.16, -68.85 4.4 M-35.74 31.96 C-46.87 23.35, -55.53 15.94, -68.36 4.23 M26.86 81.92 C15.76 74.6, 6.1 65.67, 0.42 59.5 M24.57 80.29 C19.47 75.91, 12.2 70.45, 2.48 60.69 M-32.82 31.39 C-38.53 24.51, -44.13 19.67, -64.99 2.42 M-31.31 31.87 C-40.72 22.21, -51.58 14.76, -64.51 3.95 M25.98 74.65 C17.84 69.15, 13.31 66.56, 0.92 55.26 M25.24 76.75 C19.4 69.33, 11.76 62.28, 0.61 55.85 M-21.69 35.21 C-35.52 23.12, -50.21 10.17, -60.43 3.07 M-22.81 33.49 C-31.58 25.53, -40.59 19.04, -58.92 1.64 M25.72 70 C16.86 63.43, 3.33 49.66, -3.22 42.78 M26.3 71.99 C14.71 60.6, 2.56 51.05, -4.09 44.16 M-20.39 31.3 C-32.22 21.02, -40.3 12.45, -53.58 -0.3 M-19.83 30.77 C-29.38 23.51, -37.96 15.73, -54.63 1.73 M27.15 68.39 C13.96 58.79, 4.9 45.67, -3.99 42.25 M27.8 65.9 C16.49 57.95, 6.49 49.34, -3.79 40.16 M-14.71 30.36 C-27.72 19.31, -36.6 11.28, -48.7 -1.99 M-14.69 29.15 C-29.29 17.92, -42.73 6.92, -50.06 0.08 M29.31 61.92 C18.72 53.97, 8.19 45.84, -4.33 35.11 M28.21 61.1 C18.23 53.52, 8.26 44.24, -2.1 35.69 M-12.55 27.47 C-23.96 18, -31.92 8.8, -44.57 -2.04 M-10.33 28.5 C-21.66 19.06, -29.86 10.32, -43.7 -0.21 M24.37 53.69 C8.08 40.19, -6.23 25.91, -36.91 2.15 M25.65 56.21 C2.19 34.31, -23.71 13.71, -36.9 -0.03 M23.7 47.27 C4.61 31.39, -17.82 9.28, -28.9 -1.2 M25.24 48.24 C11.11 37.84, -1.74 24.81, -30.5 0.31 M22.83 41.47 C7.65 26.72, -9.13 15.7, -25.13 2.51 M21 41.58 C11.65 31.9, 3.12 25.24, -23.35 0.62 M13.42 30.89 C8.92 22.04, -0.2 14.97, -11.24 6.8 M15.29 28.34 C6.1 20.37, -5.11 12.4, -12.75 7.15" stroke="black" stroke-width="0.5" fill="none"></path><path d="M-40.92 0 C-40.92 0, -40.92 0, -40.92 0 M-40.92 0 C-40.92 0, -40.92 0, -40.92 0 M-41.1 0.07 C-41.68 -0.07, -42.97 -0.06, -44.2 0.4 M-41 0.16 C-42.06 0.06, -43.27 -0.1, -44.39 0.25 M-44.25 0.15 C-45.07 0.12, -46.04 0.46, -48.07 0.66 M-44.38 0.09 C-44.94 0.15, -45.68 0.34, -47.82 0.19 M-47.57 0.16 C-48.82 0.39, -50.24 0.69, -51.31 0.72 M-47.69 0.35 C-48.97 0.6, -50.36 0.71, -51.18 0.64 M-51.47 1.05 C-51.97 0.76, -53.29 0.85, -54.58 1.06 M-51.19 0.73 C-52.33 1.06, -53.25 1.2, -54.33 1.42 M-54.3 1.1 C-55.36 1.58, -56.49 1.62, -57.84 1.82 M-54.4 1.37 C-55.65 1.83, -56.91 1.83, -57.53 2.02 M-57.64 2.12 C-58.3 2.02, -58.92 2.63, -60.91 3.02 M-57.68 2.11 C-58.73 2.29, -59.74 2.58, -60.72 2.97 M-60.69 2.97 C-61.81 2.97, -62.81 3.74, -63.96 4.08 M-60.78 2.97 C-61.84 3.28, -62.69 3.76, -64.04 3.94 M-64.2 3.75 C-64.93 4.54, -66.09 4.82, -66.72 5.36 M-64.11 4.14 C-64.87 4.57, -65.92 4.75, -67.11 5.13 M-67.02 5.27 C-67.85 5.55, -69.09 6.35, -69.68 6.32 M-66.97 5.14 C-67.73 5.6, -68.16 5.78, -69.93 6.68 M-69.84 6.67 C-70.82 6.88, -70.94 7.34, -72.57 8.35 M-70.08 6.46 C-71.1 7.13, -72.14 7.91, -72.76 8.09 M-73.14 8.19 C-73.87 8.74, -75.11 9.56, -75.59 9.71 M-72.91 8.07 C-74.1 8.57, -75.17 9.44, -75.73 9.59 M-75.73 9.39 C-76.65 10.32, -77.66 10.98, -78.56 11.61 M-75.81 9.76 C-76.73 10.42, -77.39 10.76, -78.39 11.59 M-78.48 11.32 C-79.42 12.1, -80.74 13.11, -80.83 13.16 M-78.36 11.54 C-78.91 12, -79.52 12.15, -80.96 13.39 M-80.98 13.4 C-81.97 14.01, -82.51 14.82, -83.69 15.48 M-81.17 13.45 C-82.16 14.15, -83.14 15, -83.55 15.27 M-83.31 15.61 C-84.23 15.58, -84.68 16.13, -85.74 17.3 M-83.55 15.22 C-84.53 16.11, -85.58 17.04, -86.1 17.54 M-85.91 17.33 C-86.69 18.18, -87.79 18.83, -88.52 19.7 M-85.99 17.36 C-86.66 18.03, -87.42 18.94, -88.26 19.65 M-88.13 19.47 C-88.88 20.18, -89.65 21, -90.57 21.79 M-88.49 19.62 C-89.15 20.48, -90.01 21.22, -90.61 21.89 M-90.69 22.09 C-91 22.41, -91.86 23.37, -92.48 24.71 M-90.43 22 C-91.3 23.01, -92.1 23.9, -92.65 24.48 M-92.98 24.58 C-92.96 24.66, -93.67 25.72, -94.78 26.7 M-92.73 24.53 C-93.32 25.22, -93.96 25.8, -94.6 27 M-94.78 27.08 C-95.19 27.76, -95.47 28.08, -96.53 29.7 M-94.58 26.97 C-95.18 27.61, -95.52 28.14, -96.7 29.41 M-96.84 29.45 C-96.84 30.46, -98.05 31.6, -98.39 32.46 M-96.55 29.61 C-96.95 30.33, -97.78 31.29, -98.13 32.17 M-98.12 32.03 C-98.97 33.25, -99.49 34.03, -99.9 35.21 M-98.23 32.26 C-98.7 32.83, -98.94 33.61, -99.85 34.96 M-100.19 35.22 C-100.38 35.97, -100.89 36.32, -101.28 37.93 M-99.76 35.07 C-100.26 35.72, -100.53 36.59, -101.24 38.07 M-101.24 37.7 C-101.82 39.08, -102.45 39.73, -102.67 41.18 M-101.43 37.9 C-101.81 38.45, -101.8 39.2, -102.65 40.87 M-102.43 41.15 C-102.82 42.08, -103.36 43.28, -103.91 44.3 M-102.6 41.03 C-103.17 41.96, -103.62 43, -103.96 44.12 M-103.87 43.95 C-104.46 45.1, -105 46.52, -105.14 46.94 M-103.9 43.97 C-104.37 44.93, -104.39 45.53, -104.84 47.14 M-105.11 47.19 C-105.27 47.9, -105.66 48.92, -105.93 50.53 M-104.83 47.14 C-105.35 47.68, -105.45 48.35, -105.96 50.45 M-105.65 50.34 C-106.26 51.01, -106.44 52.4, -106.51 53.86 M-105.99 50.31 C-106.2 51.31, -106.22 52.18, -106.6 53.62 M-106.76 53.33 C-106.98 54.73, -107.21 55.99, -106.91 56.59 M-106.65 53.64 C-106.92 54.83, -107.17 56.2, -107.2 56.92 M-107.41 56.82 C-107.24 57.53, -107.35 58.37, -107.53 60.05 M-107.34 56.78 C-107.4 57.68, -107.39 58.31, -107.6 60.09 M-107.39 60.31 C-107.79 61.06, -107.92 62.3, -107.61 63.51 M-107.75 60.3 C-107.74 60.98, -107.61 61.85, -107.95 63.77 M-107.89 63.71 C-107.99 64.55, -107.74 65.35, -107.82 66.98 M-107.93 63.67 C-107.94 64.76, -107.83 65.7, -107.97 67.2 M-107.95 66.91 C-107.96 67.66, -108.11 68.64, -108.05 69.99 M-107.95 67.11 C-107.95 67.92, -108.11 68.51, -107.86 69.9 M-107.77 69.71 C-107.94 70.72, -108.04 71.55, -108 72.66 M-108.04 69.88 C-107.84 70.37, -107.84 71.26, -107.79 72.6 M-107.7 72.39 C-107.45 73.28, -107.38 73.72, -107.66 75.08 M-107.7 72.49 C-107.67 73.39, -107.55 74.37, -107.61 75.19 M-107.62 75.02 C-107.25 76.34, -107.22 77.41, -107.1 77.98 M-107.51 75.29 C-107.38 76.27, -107.2 77.15, -107.02 78.02 M-106.87 78.16 C-106.72 78.86, -106.57 79.69, -106.39 80.74 M-107.2 78.07 C-106.94 78.58, -106.82 79.22, -106.61 80.63 M-106.76 80.42 C-106.38 81.78, -106.14 82.51, -105.99 83.21 M-106.61 80.66 C-106.49 81.37, -106.21 82.02, -106.16 83.16 M-106.23 83.36 C-105.6 84.07, -105.78 85.22, -105.61 85.82 M-106.18 83.3 C-105.71 83.91, -105.56 84.68, -105.33 85.82 M-105.44 85.82 C-105.21 86.24, -104.83 87.08, -104.59 88.13 M-105.27 85.85 C-105.08 86.8, -104.79 87.67, -104.47 88.2 M-104.6 88.27 C-104.26 89.45, -103.99 90.24, -103.92 90.59 M-104.46 88.4 C-104.21 89.18, -103.95 89.78, -103.66 90.64 M-103.84 90.89 C-103.25 91.31, -102.96 92.11, -102.97 93.07 M-103.65 90.79 C-103.3 91.59, -102.98 92.45, -102.68 93.23 M-102.58 93.17 C-102.51 93.81, -101.98 94.31, -101.45 95.58 M-102.76 93.2 C-102.2 94.03, -101.84 94.98, -101.73 95.58 M-101.5 95.64 C-101.34 95.89, -101.09 96.54, -100.35 97.87 M-101.65 95.7 C-101.4 96.15, -101.22 96.59, -100.55 97.99 M-100.24 97.88 C-99.4 98.73, -99.32 100.1, -97.89 102.21 M-100.68 98.08 C-99.57 99.71, -98.73 101.17, -98.2 102.27 M-98.34 102.74 C-96.93 104.22, -96.43 104.98, -95.58 106.71 M-97.7 102.17 C-97.29 103.59, -96.58 104.27, -95.06 106.67 M-94.93 106.44 C-93.64 107.79, -93.6 108.94, -92.2 111.01 M-94.91 106.76 C-94.15 108.18, -93.23 108.97, -91.77 110.63 M-91.94 110.73 C-91.07 111.47, -89.03 112.73, -88.37 114.43 M-91.78 110.51 C-90.62 111.9, -89.39 113.36, -88.52 114.75 M-88.53 114.65 C-86.63 116.19, -85.55 116.63, -85.03 118.24 M-88.48 114.47 C-87.39 115.47, -86.48 116.26, -84.36 117.84 M-85.01 117.93 C-83.29 119.3, -81.62 120.21, -80.21 120.82 M-84.72 118.03 C-83.59 118.84, -82.22 120.22, -80.74 121.19 M-80.55 121.26 C-79.74 122.48, -78.63 122.73, -75.97 124.16 M-80.67 121.14 C-79.43 122.18, -78.2 123.08, -76.16 124.04 M-76.05 124.54 C-74.69 125.09, -73.09 125.52, -72.03 126.85 M-76.26 123.87 C-74.96 124.86, -74.29 125.05, -71.72 126.78 M-71.81 126.91 C-71.05 126.83, -70.44 127.55, -69.16 127.68 M-71.64 126.61 C-71.03 127.07, -70.3 127.3, -69.32 127.86 M-69.67 128.02 C-68.72 128.28, -67.89 128.34, -66.98 128.74 M-69.45 127.79 C-68.65 128.05, -68.24 128.49, -67.07 128.79 M-66.78 129.12 C-66.15 129.37, -65.37 129.38, -64.58 129.75 M-67.15 128.93 C-66.27 129.21, -65.56 129.54, -64.6 129.97 M-64.37 130.02 C-64.04 130.16, -63.02 130.3, -62.12 130.98 M-64.53 129.87 C-64.13 129.96, -63.53 130.22, -62.01 130.84 M-62.03 130.78 C-61.83 130.65, -61.22 130.84, -60.97 130.94 M-62.18 130.76 C-61.61 130.77, -61.17 130.78, -60.95 130.82 M-60.95 130.9 C-60.71 130.83, -60.34 130.82, -60.06 130.68 M-60.95 130.86 C-60.68 130.81, -60.43 130.79, -60.02 130.76 M-60 130.72 C-59.74 130.56, -59.5 130.59, -59.29 130.49 M-59.97 130.73 C-59.83 130.67, -59.57 130.63, -59.21 130.48 M-59.25 130.43 C-59.1 130.32, -58.87 130.33, -58.57 129.98 M-59.22 130.41 C-59 130.29, -58.79 130.17, -58.54 129.99 M-58.56 129.99 C-58.53 129.94, -58.29 129.8, -58.11 129.4 M-58.55 130.05 C-58.46 129.84, -58.35 129.75, -58.13 129.45 M-58.16 129.52 C-58.09 129.32, -57.95 129.22, -57.84 128.87 M-58.09 129.44 C-58.03 129.28, -57.88 129.11, -57.81 128.82 M-57.86 128.91 C-57.68 128.6, -57.65 128.45, -57.61 128.21 M-57.8 128.86 C-57.75 128.74, -57.74 128.6, -57.63 128.2 M-57.65 128.12 C-57.57 128.06, -57.55 127.91, -57.57 127.56 M-57.62 128.18 C-57.56 127.98, -57.55 127.8, -57.53 127.52 M-57.47 127.53 C-57.59 127.23, -57.48 126.88, -57.53 126.7 M-57.51 127.52 C-57.58 127.28, -57.55 127.02, -57.52 126.74 M-57.45 126.7 C-57.64 126.4, -57.5 126.06, -57.48 125.67 M-57.58 126.7 C-57.53 126.28, -57.5 125.91, -57.53 125.64 M-57.57 125.54 C-57.63 125.2, -57.54 124.92, -57.46 124.34 M-57.52 125.63 C-57.52 125.11, -57.51 124.7, -57.56 124.3 M-57.57 124.35 C-57.5 123.66, -57.47 123.42, -57.59 122.69 M-57.64 124.26 C-57.5 123.83, -57.58 123.53, -57.63 122.82 M-57.7 122.82 C-57.5 122.33, -57.59 121.53, -57.67 120.93 M-57.53 122.78 C-57.54 122.12, -57.59 121.51, -57.51 120.94 M-57.46 120.96 C-57.71 120.7, -57.78 120.28, -57.66 119.25 M-57.66 120.97 C-57.54 120.29, -57.65 119.66, -57.6 119.08 M-57.69 118.91 C-57.94 118.06, -57.5 116.82, -57.97 115.08 M-57.7 119.19 C-57.69 117.52, -57.59 116.1, -57.54 114.94 M-57.68 115.12 C-58.02 115.19, -58.65 115.39, -59.33 115.24 M-57.69 114.97 C-58.18 115.19, -58.6 115.3, -59.27 115.31 M-59.44 115.38 C-59.65 115.33, -60.06 115.51, -60.91 115.5 M-59.37 115.27 C-59.78 115.39, -60.32 115.59, -60.97 115.57 M-60.97 115.62 C-61.58 115.81, -62.02 115.71, -62.49 115.64 M-60.92 115.58 C-61.23 115.61, -61.56 115.66, -62.45 115.79 M-62.59 115.76 C-62.83 115.78, -63.48 115.8, -63.93 115.85 M-62.51 115.8 C-62.83 115.8, -63.14 115.76, -64.03 115.89 M-63.87 115.97 C-64.32 115.96, -64.64 115.95, -65.28 115.89 M-63.94 115.83 C-64.29 115.79, -64.57 115.89, -65.33 115.86 M-65.28 115.96 C-65.75 115.91, -66.17 115.74, -66.61 115.77 M-65.3 115.78 C-65.84 115.77, -66.22 115.78, -66.68 115.8 M-66.76 115.94 C-67.67 115.86, -68.26 115.43, -69.28 115.66 M-66.63 115.73 C-67.37 115.66, -68.07 115.54, -68.94 115.45 M-68.86 115.65 C-69.27 115.41, -69.74 115.45, -71.06 114.91 M-69.1 115.41 C-69.73 115.29, -70.19 115.09, -71.23 114.98 M-71.06 114.98 C-71.37 114.71, -71.74 114.55, -73.18 114.45 M-71.14 115.05 C-71.46 114.8, -71.87 114.63, -73.05 114.22 M-73.04 114.27 C-73.46 114.01, -74.06 113.96, -74.44 113.45 M-72.93 114.28 C-73.59 114.02, -74.25 113.66, -74.56 113.53 M-74.62 113.34 C-75.07 113.2, -75.27 113.12, -76.08 112.74 M-74.6 113.47 C-74.86 113.26, -75.17 113, -75.96 112.64 M-75.96 112.66 C-76.24 112.32, -76.91 111.87, -77.1 111.55 M-75.93 112.62 C-76.38 112.23, -76.67 111.98, -77.02 111.66 M-77.07 111.52 C-77.55 111.37, -77.7 110.77, -78.11 110.66 M-77.11 111.62 C-77.33 111.46, -77.56 111.18, -77.96 110.61 M-78.09 110.59 C-78.27 110.48, -78.61 110.11, -78.69 109.64 M-77.97 110.71 C-78.22 110.4, -78.54 110.01, -78.81 109.79 M-78.72 109.8 C-78.93 109.6, -78.94 109.38, -79.27 108.93 M-78.8 109.73 C-78.97 109.47, -79.11 109.26, -79.29 108.94 M-79.37 108.96 C-79.41 108.68, -79.61 108.51, -79.75 108.19 M-79.31 108.93 C-79.46 108.67, -79.61 108.39, -79.76 108.19 M-79.75 108.2 C-79.84 108.02, -79.83 107.97, -80.04 107.54 M-79.76 108.19 C-79.85 108.08, -79.9 107.96, -80.06 107.58 M-80.06 107.59 C-80.09 107.52, -80.14 107.41, -80.19 107.22 M-80.01 107.61 C-80.06 107.49, -80.11 107.4, -80.2 107.22 M-80.18 107.23 C-80.19 107.2, -80.2 107.18, -80.25 107.09 M-80.19 107.24 C-80.2 107.2, -80.21 107.15, -80.24 107.1 M-80.13 107.22 C-80.49 106.52, -80.53 106.14, -80.81 105.59 M-80.25 107.15 C-80.39 106.74, -80.56 106.34, -80.88 105.67 M-80.77 105.71 C-81.02 105.19, -81.2 104.81, -81.49 104.49 M-80.8 105.66 C-81.13 105.26, -81.29 104.79, -81.45 104.52 M-81.54 104.4 C-81.48 104.3, -81.74 103.94, -81.95 103.33 M-81.48 104.49 C-81.59 104.07, -81.77 103.73, -82.08 103.26 M-82.11 103.35 C-82.14 103.05, -82.28 102.78, -82.7 102.22 M-82.04 103.31 C-82.2 102.94, -82.44 102.62, -82.65 102.31 M-82.75 102.21 C-82.95 102.07, -83.03 101.61, -83.25 101.44 M-82.7 102.29 C-82.94 102.05, -83.14 101.7, -83.31 101.34 M-83.24 101.47 C-83.41 101.09, -83.64 101.04, -83.92 100.6 M-83.32 101.43 C-83.57 101.11, -83.79 100.81, -83.9 100.63 M-83.96 100.5 C-84.01 100.42, -84.2 100.31, -84.5 99.86 M-83.97 100.57 C-84.15 100.41, -84.23 100.17, -84.54 99.9 M-84.6 99.94 C-84.66 99.68, -84.91 99.58, -85.13 99.3 M-84.51 99.86 C-84.68 99.72, -84.79 99.54, -85.14 99.25 M-85.18 99.39 C-85.51 99.03, -85.68 98.73, -86.2 98.4 M-85.08 99.32 C-85.45 98.93, -85.87 98.62, -86.1 98.36 M-86.1 98.37 C-86.41 98.14, -86.64 97.99, -87.04 97.68 M-86.18 98.39 C-86.41 98.15, -86.62 97.92, -86.93 97.69 M-86.97 97.73 C-87.04 97.65, -87.09 97.64, -87.28 97.53 M-86.96 97.74 C-87.03 97.69, -87.1 97.65, -87.27 97.53 M-87.27 97.51 C-87.33 97.5, -87.42 97.46, -87.48 97.39 M-87.26 97.52 C-87.34 97.48, -87.42 97.45, -87.49 97.39 M-87.49 97.4 C-87.54 97.36, -87.56 97.35, -87.63 97.31 M-87.49 97.39 C-87.54 97.37, -87.58 97.34, -87.63 97.32 M-87.64 97.31 C-87.65 97.3, -87.66 97.3, -87.69 97.29 M-87.64 97.31 C-87.65 97.3, -87.67 97.29, -87.68 97.28 M-87.63 97.37 C-87.9 97.06, -88.2 96.8, -88.62 96.48 M-87.64 97.26 C-88.02 97.02, -88.5 96.75, -88.72 96.56 M-88.69 96.47 C-88.93 96.34, -89.04 96.3, -89.4 95.9 M-88.68 96.54 C-88.94 96.36, -89.21 96.16, -89.41 95.93 M-89.44 95.95 C-89.57 95.73, -89.65 95.72, -89.87 95.37 M-89.39 95.9 C-89.55 95.69, -89.71 95.57, -89.88 95.4 M-89.89 95.31 C-89.96 95.16, -90.07 95.03, -90.23 94.88 M-89.9 95.34 C-89.97 95.27, -90.04 95.14, -90.19 94.87 M-90.19 94.9 C-90.23 94.77, -90.27 94.69, -90.31 94.5 M-90.17 94.88 C-90.21 94.72, -90.26 94.59, -90.27 94.5 M-90.3 94.5 C-90.25 94.34, -90.25 94.27, -90.22 94.18 M-90.26 94.5 C-90.25 94.37, -90.22 94.24, -90.2 94.18 M-90.19 94.19 C-90.15 94.08, -90.11 94.01, -90.02 93.87 M-90.2 94.17 C-90.15 94.09, -90.09 94.02, -90.02 93.9 M-90.02 93.89 C-89.98 93.87, -89.91 93.78, -89.71 93.65 M-90.03 93.9 C-89.93 93.82, -89.83 93.76, -89.73 93.67 M-89.67 93.71 C-89.45 93.64, -89.26 93.48, -88.9 93.36 M-89.72 93.67 C-89.46 93.58, -89.18 93.45, -88.98 93.37 M-89.04 93.43 C-88.8 93.4, -88.63 93.35, -88.15 93.27 M-88.98 93.38 C-88.61 93.34, -88.33 93.24, -88.18 93.29 M-88.11 93.25 C-87.97 93.28, -87.67 93.21, -87.53 93.16 M-88.17 93.23 C-87.87 93.26, -87.62 93.23, -87.51 93.23 M-87.48 93.2 C-87.43 93.23, -87.41 93.2, -87.31 93.22 M-87.49 93.21 C-87.45 93.22, -87.4 93.21, -87.29 93.22 M-87.3 93.21 C-87.28 93.21, -87.26 93.2, -87.22 93.2 M-87.3 93.2 C-87.27 93.21, -87.24 93.2, -87.23 93.21 M-87.18 93.24 C-86.89 93.18, -86.3 93.4, -86.1 93.45 M-87.19 93.25 C-86.71 93.32, -86.34 93.32, -86.05 93.3 M-85.9 93.31 C-85.69 93.45, -85.49 93.57, -84.84 93.57 M-85.94 93.38 C-85.73 93.44, -85.52 93.41, -84.83 93.69 M-84.89 93.68 C-84.47 93.8, -84.02 93.94, -83.79 94.12 M-84.81 93.65 C-84.64 93.7, -84.45 93.74, -83.73 94.05 M-83.73 94.01 C-83.5 94.13, -83.32 94.32, -82.79 94.39 M-83.8 93.98 C-83.52 94.13, -83.12 94.33, -82.8 94.48 M-82.85 94.29 C-82.35 94.71, -81.49 95.15, -80.84 95.41 M-82.79 94.45 C-82.22 94.85, -81.7 95.02, -80.96 95.6 M-81.03 95.45 C-80.48 96.1, -79.84 96.67, -79.74 97.02 M-80.98 95.7 C-80.57 95.81, -80.29 96.12, -79.62 96.93 M-79.59 96.94 C-79.12 97.33, -78.97 97.43, -78.27 98.22 M-79.61 96.91 C-79.09 97.34, -78.67 97.75, -78.39 97.99 M-78.39 97.99 C-78.24 98.19, -78.08 98.34, -78.02 98.63 M-78.45 98.04 C-78.27 98.2, -78.11 98.42, -77.94 98.6 M-77.97 98.64 C-77.88 98.7, -77.73 98.86, -77.59 99.14 M-77.95 98.61 C-77.86 98.78, -77.73 98.91, -77.61 99.09 M-77.6 99.07 C-77.52 99.23, -77.42 99.29, -77.27 99.51 M-77.62 99.11 C-77.47 99.26, -77.39 99.42, -77.31 99.52 M-77.3 99.49 C-77.22 99.6, -77.21 99.71, -77.1 99.83 M-77.3 99.54 C-77.26 99.6, -77.23 99.66, -77.12 99.83 M-77.09 99.83 C-77.09 99.9, -77.03 99.92, -76.98 100.03 M-77.12 99.84 C-77.06 99.91, -77.01 100, -76.98 100.06 M-76.99 100.05 C-76.97 100.07, -76.95 100.09, -76.94 100.13 M-76.98 100.05 C-76.98 100.06, -76.96 100.08, -76.94 100.12 M-76.73 100.19 C-76.68 100.67, -76.42 101.28, -75.87 101.93 M-76.95 100.16 C-76.56 100.61, -76.35 100.9, -75.76 102 M-75.69 101.76 C-75.59 102.11, -75.14 102.58, -74.63 103.39 M-75.77 101.84 C-75.4 102.26, -75.07 102.74, -74.55 103.36 M-74.63 103.3 C-73.93 104.01, -73.43 104.29, -73.12 104.64 M-74.49 103.31 C-74.13 103.77, -73.47 104.39, -73.32 104.55 M-73.2 104.56 C-72.74 104.72, -72.63 105.24, -71.84 105.58 M-73.19 104.56 C-72.95 104.76, -72.78 104.97, -71.93 105.56 M-71.93 105.52 C-71.33 105.81, -70.91 106.04, -70.41 106.17 M-71.83 105.51 C-71.45 105.87, -70.8 106.16, -70.55 106.31 M-70.44 106.16 C-70.33 106.44, -69.93 106.58, -69.22 106.78 M-70.52 106.34 C-70.21 106.43, -69.94 106.6, -69.22 106.82 M-69 106.76 C-68.87 106.83, -68.32 107.1, -67.79 107.08 M-69.16 106.89 C-68.66 106.94, -68.11 107.12, -67.71 107.24 M-67.83 107.14 C-67.41 107.24, -67.05 107.32, -66.51 107.3 M-67.7 107.2 C-67.36 107.19, -66.89 107.27, -66.37 107.41 M-66.47 107.3 C-65.85 107.42, -65.5 107.42, -65.07 107.45 M-66.41 107.45 C-65.87 107.4, -65.48 107.43, -65.03 107.39 M-64.89 107.55 C-64.47 107.47, -64.04 107.49, -63.62 107.42 M-64.96 107.49 C-64.51 107.45, -64.06 107.39, -63.7 107.41 M-63.64 107.42 C-63.27 107.37, -62.67 107.27, -62.33 107.29 M-63.77 107.4 C-63.28 107.3, -62.97 107.24, -62.4 107.25 M-62.46 107.15 C-62.13 107.22, -61.65 107.12, -61.35 106.93 M-62.49 107.28 C-61.97 107.18, -61.52 106.99, -61.25 106.98 M-61.29 106.9 C-60.91 106.9, -60.52 106.8, -60.08 106.77 M-61.3 106.95 C-60.89 106.93, -60.51 106.79, -60.16 106.66 M-60.23 106.61 C-59.66 106.61, -59.27 106.4, -59.02 106.42 M-60.11 106.69 C-59.85 106.66, -59.55 106.54, -59.17 106.38 M-59.02 106.31 C-58.8 106.2, -58.39 106.11, -58.25 105.99 M-59.16 106.35 C-58.8 106.23, -58.47 106.15, -58.21 105.99 M-58.22 105.97 C-57.97 105.98, -57.81 105.89, -57.48 105.75 M-58.22 105.99 C-57.9 105.91, -57.56 105.8, -57.4 105.71 M-57.37 105.73 C-57.26 105.21, -57.28 104.6, -57.22 104.05 M-57.44 105.67 C-57.3 105.22, -57.26 104.8, -57.09 104.1 M-57.16 104.11 C-57.17 103.82, -57.07 103.58, -56.83 102.62 M-57.16 104.17 C-57.04 103.67, -56.93 103.26, -56.76 102.69 M-56.66 102.57 C-56.7 102.3, -56.31 101.64, -56.26 101.38 M-56.82 102.69 C-56.73 102.42, -56.6 102.14, -56.36 101.43 M-56.42 101.41 C-56.2 101.1, -56.14 100.88, -55.8 100.31 M-56.31 101.38 C-56.22 101.12, -56.11 100.91, -55.83 100.24 M-55.69 100.16 C-55.5 99.78, -55.36 99.4, -55.16 99.08 M-55.76 100.19 C-55.68 99.94, -55.52 99.65, -55.23 99.18 M-55.19 99.22 C-54.93 98.93, -54.76 98.69, -54.57 98.28 M-55.2 99.13 C-54.95 98.81, -54.72 98.49, -54.53 98.27 M-54.55 98.18 C-54.38 97.98, -54.05 97.63, -53.89 97.37 M-54.57 98.21 C-54.34 97.92, -54.13 97.73, -53.85 97.39 M-53.96 97.5 C-53.65 97.25, -53.45 96.98, -53.12 96.8 M-53.83 97.43 C-53.71 97.22, -53.56 97.02, -53.13 96.77 M-53.28 96.45 C-54.09 96.41, -55.21 96.73, -56 96.24 M-53.15 96.81 C-54.18 96.46, -55.3 96.37, -55.9 96.24 M-56.09 96.28 C-56.74 96.23, -57.5 96.1, -58.74 95.79 M-55.85 96.32 C-57.06 96.31, -57.77 95.88, -58.89 95.9 M-58.77 95.88 C-59.56 95.91, -60.62 95.47, -61.62 95.06 M-58.69 95.81 C-59.5 95.62, -60.36 95.65, -61.62 95.32 M-61.34 95 C-62.67 95.19, -63.16 94.94, -64.16 94.4 M-61.61 95.36 C-62.19 95.03, -62.61 94.94, -64.34 94.37 M-63.97 94.69 C-65.21 93.92, -65.5 93.89, -66.64 93.51 M-64.17 94.38 C-65.31 93.98, -66.33 93.72, -66.97 93.39 M-66.84 93.52 C-67.65 93.09, -67.84 92.81, -69.37 92.16 M-66.78 93.4 C-67.3 93.36, -67.84 93.02, -69.37 92.38 M-69.5 92.25 C-70.02 91.77, -71.23 91.49, -72.02 90.93 M-69.28 92.39 C-70.02 92.04, -70.57 91.72, -71.74 90.82 M-71.82 90.6 C-72.21 90.35, -72.85 90.21, -74.07 89.09 M-71.69 90.85 C-72.74 90.09, -73.48 89.5, -74.05 89.1 M-73.9 89.1 C-74.71 88.96, -75.25 88.45, -76.37 87.01 M-74.12 89.29 C-74.49 88.69, -75.18 88.06, -76.21 87.2 M-75.96 87 C-76.63 86.55, -77.64 85.69, -78.18 84.66 M-76.12 87.3 C-76.8 86.39, -77.4 85.65, -78.01 85.02 M-78.08 84.8 C-78.28 84.59, -78.32 84.27, -78.97 83.67 M-78.01 84.98 C-78.18 84.63, -78.48 84.26, -78.8 83.72 M-78.73 83.57 C-79 83.15, -79.37 82.69, -79.71 82.44 M-78.77 83.71 C-79.18 83.19, -79.45 82.58, -79.61 82.33 M-79.73 82.17 C-79.9 81.87, -80.14 81.41, -80.32 80.91 M-79.66 82.37 C-79.91 81.85, -80.18 81.26, -80.45 80.82 M-80.45 80.73 C-80.46 80.53, -80.86 80.02, -80.91 79.34 M-80.35 80.94 C-80.46 80.48, -80.58 80.21, -81.11 79.33 M-81.19 79.45 C-81.19 79.02, -81.21 78.66, -81.66 77.88 M-81.11 79.38 C-81.23 78.65, -81.45 78.12, -81.69 77.81 M-81.57 77.61 C-81.65 77.12, -82.14 76.71, -82.02 75.98 M-81.58 77.8 C-81.68 77.39, -81.8 77.03, -82.1 76.02 M-82.1 76.14 C-82.4 75.4, -82.46 74.61, -82.71 74.21 M-82.12 76.06 C-82.32 75.41, -82.56 74.57, -82.72 74.31 M-82.79 74.19 C-82.83 73.64, -82.73 72.93, -82.84 72.26 M-82.71 74.24 C-82.78 73.6, -82.88 72.91, -83.07 72.39 M-82.93 72.46 C-82.97 71.82, -83.1 71.13, -83.46 70.49 M-83.04 72.22 C-83.02 71.73, -83.12 71.22, -83.41 70.28 M-83.34 70.31 C-83.37 69.65, -83.36 68.7, -83.71 68.1 M-83.43 70.25 C-83.38 69.41, -83.56 68.62, -83.54 68.19 M-83.6 68.26 C-83.74 67.51, -83.4 66.96, -83.8 66.03 M-83.58 68.22 C-83.58 67.49, -83.5 66.94, -83.57 65.95 M-83.9 66.01 C-83.89 65.16, -83.94 64.68, -83.81 63.41 M-83.77 65.87 C-83.77 65.38, -83.82 64.78, -83.64 63.68 M-83.67 63.4 C-83.68 63.04, -83.55 62.58, -83.43 60.87 M-83.69 63.49 C-83.72 62.66, -83.76 61.65, -83.59 60.97 M-83.76 60.93 C-83.25 60.33, -83.62 59.28, -83.46 58.47 M-83.7 60.98 C-83.4 59.85, -83.28 58.79, -83.13 58.21 M-83.49 58.18 C-83.06 57.92, -83.1 57.28, -82.68 55.95 M-83.13 58.33 C-82.97 57.39, -82.93 56.52, -82.64 55.91 M-82.64 55.93 C-82.29 55.1, -82.23 54.11, -81.8 53.47 M-82.57 55.95 C-82.45 55.14, -82.08 54.39, -81.99 53.6 M-81.69 53.7 C-81.27 52.92, -81.22 51.64, -80.72 51.2 M-81.88 53.59 C-81.56 53.11, -81.41 52.46, -80.98 51.43 M-80.72 51.42 C-80.34 50.64, -80.12 50.17, -79.49 49.45 M-80.94 51.43 C-80.57 50.82, -80.24 50.3, -79.81 49.22 M-79.84 49.51 C-79.34 48.92, -79.02 47.97, -78.19 47.39 M-79.81 49.39 C-79.29 48.82, -78.89 48.31, -78.45 47.48 M-78.11 47.62 C-77.74 46.64, -77.38 46.27, -76.82 45.55 M-78.42 47.42 C-77.85 46.72, -77.2 46.28, -76.85 45.57 M-76.81 45.59 C-76.9 45.49, -76.92 45.33, -76.97 45.23 M-76.8 45.57 C-76.85 45.44, -76.92 45.32, -76.96 45.19 M-77 45.24 C-77.03 45.03, -77.06 44.79, -77.13 44.72 M-76.95 45.21 C-77.01 45, -77.08 44.81, -77.11 44.72 M-77.16 44.72 C-77.24 44.52, -77.24 44.38, -77.29 44.05 M-77.16 44.69 C-77.18 44.53, -77.25 44.3, -77.31 44.1 M-77.35 44.04 C-77.35 43.87, -77.43 43.48, -77.59 43.42 M-77.3 44.09 C-77.4 43.93, -77.42 43.7, -77.53 43.38 M-77.53 43.43 C-77.53 43.26, -77.56 43.05, -77.73 42.54 M-77.55 43.42 C-77.63 43.09, -77.63 42.76, -77.68 42.57 M-77.75 42.61 C-77.69 42.37, -77.74 42.27, -77.88 41.58 M-77.68 42.61 C-77.76 42.29, -77.78 42.1, -77.84 41.65 M-77.88 41.66 C-77.91 41.43, -77.88 41.16, -77.98 40.61 M-77.92 41.65 C-77.87 41.3, -77.98 40.93, -78.05 40.6 M-78.03 40.63 C-78.14 40.23, -78.18 39.96, -78.19 39.5 M-77.97 40.6 C-78.01 40.28, -78.06 39.84, -78.17 39.55 M-78.04 39.53 C-78.16 39.33, -78.17 39.03, -78.19 38.4 M-78.11 39.58 C-78.16 39, -78.13 38.6, -78.2 38.28 M-78.14 38.41 C-78.24 38.05, -78.12 37.77, -78.27 36.94 M-78.17 38.38 C-78.13 38.03, -78.23 37.78, -78.17 37.07 M-78.17 36.94 C-78.02 36.75, -78.03 36.12, -78.08 35.7 M-78.11 37.08 C-78.18 36.58, -78.06 36, -78.09 35.65 M-78 35.74 C-78.12 35.19, -77.95 34.72, -77.84 34.36 M-78.02 35.75 C-77.97 35.28, -77.94 34.78, -77.88 34.24 M-77.75 34.4 C-77.89 33.83, -77.82 33.42, -77.51 32.66 M-77.85 34.18 C-77.8 33.94, -77.81 33.64, -77.68 32.77 M-77.49 32.78 C-77.5 32.44, -77.37 31.99, -77.29 31.18 M-77.62 32.77 C-77.47 32.31, -77.44 32, -77.29 31.21 M-77.15 31.27 C-77.06 30.58, -76.91 30.3, -76.61 29.69 M-77.21 31.22 C-77.09 30.58, -76.78 29.87, -76.79 29.57 M-76.76 29.59 C-76.71 28.98, -76.37 28.61, -76.31 27.98 M-76.82 29.48 C-76.62 29.07, -76.4 28.44, -76.16 27.78 M-76.16 27.82 C-76.15 27.81, -76.13 27.81, -76.1 27.8 M-76.16 27.82 C-76.14 27.82, -76.12 27.81, -76.1 27.8 M-76.08 27.81 C-76.02 27.77, -75.97 27.77, -75.9 27.78 M-76.1 27.8 C-76.03 27.78, -75.95 27.78, -75.89 27.75 M-75.93 27.77 C-75.8 27.76, -75.72 27.77, -75.54 27.7 M-75.89 27.76 C-75.8 27.74, -75.68 27.74, -75.55 27.72 M-75.52 27.73 C-75.4 27.71, -75.22 27.67, -75.08 27.69 M-75.58 27.71 C-75.4 27.69, -75.23 27.7, -75.09 27.65 M-75.1 27.66 C-74.85 27.61, -74.76 27.69, -74.43 27.64 M-75.11 27.68 C-74.89 27.65, -74.73 27.66, -74.47 27.64 M-74.52 27.7 C-74.24 27.63, -74.01 27.76, -73.7 27.78 M-74.45 27.69 C-74.26 27.68, -74.09 27.69, -73.73 27.72 M-73.79 27.73 C-73.51 27.68, -73.2 27.69, -72.88 27.86 M-73.66 27.7 C-73.5 27.7, -73.35 27.75, -72.78 27.84 M-72.78 27.73 C-72.45 27.77, -72.23 27.94, -71.64 27.93 M-72.82 27.76 C-72.56 27.84, -72.27 27.89, -71.77 27.95 M-71.68 28.01 C-71.43 28, -70.8 28.12, -70.5 28.37 M-71.73 27.95 C-71.48 28.05, -71.2 28.08, -70.5 28.25 M-70.54 28.41 C-70.09 28.56, -69.57 28.63, -69.27 28.68 M-70.49 28.29 C-70.24 28.33, -69.91 28.48, -69.14 28.64 M-69.08 28.62 C-68.47 28.77, -68.03 29.17, -67.55 29.15 M-69.11 28.71 C-68.73 28.82, -68.41 28.97, -67.66 29.24 M-67.81 29.32 C-67.21 29.31, -66.83 29.69, -66.12 29.8 M-67.69 29.26 C-67.28 29.45, -67.04 29.47, -66.05 29.91 M-66.08 30.14 C-65.66 30.05, -64.88 30.5, -64.32 30.65 M-66.03 29.94 C-65.42 30.13, -64.77 30.45, -64.21 30.74 M-64.4 30.86 C-63.45 31.2, -63 31.46, -62.17 31.88 M-64.28 30.89 C-63.65 31.13, -62.83 31.64, -62.14 31.98 M-61.99 31.67 C-61.57 32.54, -60.44 32.61, -60.26 33.03 M-62.08 32.02 C-61.57 32.28, -60.76 32.75, -60.1 33.22 M-59.87 33.07 C-59.46 33.72, -58.84 33.99, -57.67 34.44 M-59.9 33.26 C-59.28 33.66, -58.64 34.13, -57.62 34.72 M-57.31 35 C-56.69 34.3, -54.56 33.78, -53.74 34.13 M-57.85 34.52 C-56.32 34.36, -55.27 34.03, -53.55 33.55 M-53.77 33.46 C-52.57 33.61, -50.83 33.54, -49.61 32.94 M-53.63 33.72 C-52.19 33.37, -51.09 33.29, -49.3 32.86 M-49.36 33.38 C-48.6 32.92, -47.98 32.59, -45.56 32.52 M-49.5 32.97 C-47.9 32.64, -46.08 32.59, -45.36 32.55 M-45.09 32.3 C-43.76 32.14, -42.09 32.21, -41.01 32.14 M-45.01 32.4 C-43.83 32.44, -42.08 32.68, -40.86 32.5 M-40.92 32.67 C-39.55 32.3, -38.82 32.31, -36.85 33.02 M-41.02 32.28 C-39.67 32.36, -38.64 32.37, -36.44 32.69 M-36.33 32.72 C-35.35 33.15, -34.01 32.88, -32.68 33.41 M-36.55 32.65 C-35.35 32.77, -34.25 32.94, -32.36 33.23 M-32.77 32.62 C-30.5 33.56, -29.24 33.85, -28.42 34.01 M-32.52 32.92 C-31.61 33.04, -30.52 33.2, -28.05 33.68 M-28.29 33.9 C-27.32 33.91, -25.97 34.66, -24.03 34.78 M-28.26 33.77 C-27.17 34.08, -26.61 34.27, -24.05 34.8 M-24.2 34.65 C-23.47 34.38, -23.13 33.98, -21.82 33.26 M-24.24 34.67 C-23.53 34.28, -22.75 33.87, -21.83 33.31 M-21.67 33.43 C-20.98 32.67, -20.15 32.12, -19.69 32.14 M-21.81 33.22 C-20.93 32.59, -20.16 32.13, -19.66 31.81 M-19.83 32.01 C-19 31.54, -18.45 31.23, -17.63 30.89 M-19.67 31.98 C-19.12 31.59, -18.77 31.47, -17.7 30.73 M-17.61 30.9 C-17.35 30.6, -16.87 30.39, -15.67 30.13 M-17.63 30.81 C-17.32 30.64, -16.91 30.48, -15.92 30.06 M-15.76 30.07 C-15.52 29.62, -14.97 29.65, -14.21 29.32 M-15.88 29.96 C-15.34 29.81, -14.8 29.55, -14.18 29.25 M-14.04 29.26 C-13.89 29.1, -13.38 29.06, -12.77 28.72 M-14.13 29.3 C-13.78 29.06, -13.49 29.04, -12.7 28.78 M-12.72 28.75 C-12.22 28.64, -11.88 28.5, -11.2 28.22 M-12.68 28.64 C-12.13 28.53, -11.65 28.37, -11.28 28.28 M-11.27 28.4 C-10.96 28.3, -10.47 28.02, -10.02 28.09 M-11.31 28.35 C-10.92 28.25, -10.62 28.19, -10.13 27.97 M-10.08 27.94 C-9.91 27.87, -9.55 27.82, -9.12 27.76 M-10.07 28.03 C-9.76 28, -9.39 27.9, -9.01 27.85 M-8.96 27.87 C-8.7 27.75, -8.43 27.81, -8.19 27.63 M-9.02 27.77 C-8.7 27.79, -8.4 27.7, -8.18 27.73 M-8.22 27.73 C-7.91 27.69, -7.59 27.72, -7.36 27.64 M-8.14 27.72 C-7.89 27.67, -7.68 27.67, -7.41 27.66 M-7.4 27.69 C-7.24 27.62, -7.09 27.68, -6.77 27.66 M-7.38 27.68 C-7.23 27.64, -7.11 27.65, -6.79 27.65 M-6.75 27.64 C-6.63 27.72, -6.55 27.73, -6.27 27.72 M-6.75 27.66 C-6.59 27.68, -6.45 27.7, -6.28 27.71 M-6.3 27.72 C-6.2 27.75, -6.17 27.74, -5.97 27.74 M-6.31 27.7 C-6.18 27.73, -6.04 27.75, -5.96 27.76 M-5.96 27.77 C-5.88 27.79, -5.83 27.77, -5.77 27.82 M-5.95 27.75 C-5.87 27.77, -5.8 27.8, -5.75 27.81 M-5.75 27.8 C-5.74 27.8, -5.73 27.81, -5.68 27.82 M-5.76 27.8 C-5.73 27.81, -5.71 27.82, -5.69 27.82 M-5.71 27.74 C-5.66 28.32, -5.34 29.01, -4.99 29.47 M-5.6 27.89 C-5.58 28.45, -5.25 29.04, -5.13 29.47 M-5.15 29.41 C-5 30.03, -4.83 30.79, -4.57 31.26 M-5.08 29.46 C-4.94 30.01, -4.82 30.45, -4.61 31.21 M-4.71 31.23 C-4.44 31.65, -4.17 32.49, -4.23 32.58 M-4.61 31.16 C-4.5 31.56, -4.41 31.88, -4.17 32.81 M-4.33 32.83 C-4.01 33.16, -4.16 33.66, -3.84 34.29 M-4.16 32.71 C-4.1 33.22, -4.03 33.68, -4 34.26 M-4.06 34.31 C-3.9 34.58, -3.89 35.04, -3.76 35.63 M-3.92 34.21 C-3.9 34.85, -3.85 35.33, -3.74 35.76 M-3.77 35.72 C-3.64 36.13, -3.77 36.57, -3.78 37.18 M-3.74 35.71 C-3.77 36.23, -3.72 36.64, -3.74 37 M-3.59 37.12 C-3.76 37.54, -3.63 37.84, -3.72 38.26 M-3.72 37.11 C-3.73 37.42, -3.63 37.89, -3.65 38.38 M-3.58 38.38 C-3.66 38.8, -3.8 39.08, -3.69 39.53 M-3.64 38.35 C-3.63 38.63, -3.66 38.83, -3.77 39.48 M-3.7 39.55 C-3.84 39.78, -3.79 40.3, -3.86 40.63 M-3.78 39.53 C-3.74 39.82, -3.77 40.14, -3.86 40.6 M-3.76 40.65 C-3.89 40.8, -3.97 41.08, -4.06 41.57 M-3.83 40.68 C-3.85 41.02, -3.89 41.45, -3.95 41.68 M-4.05 41.73 C-4.09 41.81, -4.13 42.08, -4.18 42.51 M-3.99 41.62 C-3.98 41.91, -4.08 42.16, -4.19 42.58 M-4.21 42.55 C-4.28 42.77, -4.32 43.16, -4.29 43.39 M-4.16 42.55 C-4.17 42.87, -4.3 43.18, -4.29 43.36 M-4.29 43.39 C-4.33 43.48, -4.41 43.72, -4.59 44.06 M-4.36 43.42 C-4.36 43.62, -4.42 43.82, -4.51 44.07 M-4.51 44.15 C-4.6 44.22, -4.64 44.38, -4.69 44.74 M-4.5 44.12 C-4.56 44.25, -4.64 44.44, -4.72 44.72 M-4.68 44.68 C-4.79 44.88, -4.86 45.04, -4.87 45.23 M-4.73 44.7 C-4.76 44.83, -4.81 44.97, -4.9 45.21 M-4.89 45.18 C-4.96 45.29, -4.97 45.42, -5.01 45.61 M-4.9 45.2 C-4.9 45.27, -4.95 45.33, -5.04 45.55 M-4.83 45.44 C-4.2 46.44, -4.03 46.96, -3.6 47.21 M-5.04 45.54 C-4.6 46.21, -4.11 46.72, -3.57 47.5 M-3.3 47.43 C-3.1 47.86, -2.63 48.09, -2.14 49.12 M-3.41 47.47 C-3.17 47.88, -2.6 48.47, -2.09 49.4 M-2.03 49.25 C-1.52 49.98, -1.37 50.45, -1.01 51.37 M-2.05 49.31 C-1.76 50.05, -1.29 50.96, -0.84 51.5 M-0.96 51.22 C-0.71 52, -0.39 52.85, 0.17 53.47 M-0.85 51.32 C-0.62 51.86, -0.41 52.46, 0.09 53.64 M-0.04 53.68 C0.43 54.03, 0.37 54.47, 0.82 56.12 M0.09 53.54 C0.3 54.19, 0.4 54.9, 0.8 55.86 M0.95 56.14 C1.03 56.47, 1.05 57.38, 1.4 58.5 M0.79 55.82 C1.07 56.56, 1.31 57.47, 1.39 58.25 M1.46 58.36 C1.49 59.03, 1.39 59.44, 1.66 60.8 M1.5 58.35 C1.43 59.45, 1.56 60.46, 1.8 61.02 M1.77 61.03 C1.62 61.73, 1.8 62.32, 1.64 63.39 M1.68 60.98 C1.89 61.84, 1.93 62.69, 1.86 63.48 M1.64 63.41 C1.94 64.67, 1.95 65.26, 1.96 66.07 M1.95 63.5 C1.99 63.98, 1.91 64.62, 1.71 66.01 M1.94 66 C1.91 66.89, 1.94 67.51, 1.74 68.23 M1.87 66.04 C1.73 66.54, 1.74 67.2, 1.76 68.12 M1.8 68.34 C1.6 68.62, 1.71 69.22, 1.67 70.18 M1.73 68.25 C1.67 69.07, 1.49 69.9, 1.51 70.41 M1.5 70.28 C1.43 71.2, 1.43 71.78, 1.32 72.41 M1.56 70.39 C1.3 71.19, 1.27 71.94, 1.11 72.41 M1.22 72.19 C1.25 72.87, 1.09 73.24, 0.62 74.43 M1.07 72.23 C1.01 72.86, 1.02 73.41, 0.69 74.28 M0.71 74.21 C0.74 74.5, 0.59 74.93, 0.27 76.24 M0.74 74.33 C0.55 74.92, 0.5 75.47, 0.42 75.96 M0.22 76.04 C0.21 76.72, -0.03 77.48, -0.18 77.61 M0.25 76.09 C0.29 76.41, 0.11 76.92, -0.2 77.77 M-0.24 77.79 C-0.37 78.18, -0.58 78.65, -0.93 79.26 M-0.27 77.79 C-0.38 78.08, -0.49 78.46, -0.74 79.35 M-0.76 79.35 C-1.06 79.95, -1.33 80.22, -1.63 80.75 M-0.78 79.42 C-0.95 79.71, -1.12 80.2, -1.45 80.99 M-1.46 80.85 C-1.7 81.23, -1.96 81.61, -2.35 82.45 M-1.42 80.93 C-1.84 81.51, -2.09 81.91, -2.21 82.27 M-2.11 82.38 C-2.36 82.58, -2.47 83.03, -3.1 83.54 M-2.28 82.31 C-2.51 82.81, -2.73 83.26, -3.08 83.6 M-3 83.78 C-3.27 83.98, -3.41 84.48, -3.83 85.07 M-3.07 83.73 C-3.39 84.15, -3.69 84.63, -3.83 84.92 M-3.98 85.19 C-4.51 85.71, -4.93 86.25, -6 87.39 M-3.88 85.02 C-4.37 85.51, -4.82 86.07, -5.76 87.2 M-5.79 87.33 C-6.47 87.62, -6.96 88.13, -7.57 89.05 M-5.73 87.16 C-6.32 87.49, -6.77 88.13, -7.87 89.3 M-7.97 88.93 C-8.52 89.5, -9.03 89.91, -9.99 90.91 M-7.92 89.23 C-8.72 89.76, -9.34 90.19, -10.07 90.88 M-10.18 90.69 C-10.74 91.51, -11.73 92.01, -12.31 92.48 M-10.01 90.78 C-10.87 91.36, -11.9 91.75, -12.54 92.17 M-12.45 92.54 C-13.33 92.47, -14.32 93.09, -15.12 93.37 M-12.51 92.31 C-13.06 92.59, -13.87 92.82, -15.11 93.51 M-14.98 93.25 C-15.79 93.94, -16.71 94.32, -17.52 94.56 M-15.01 93.33 C-15.68 93.65, -16.31 94.04, -17.67 94.55 M-17.49 94.5 C-18.16 94.82, -19.26 95.03, -20.4 95.19 M-17.57 94.45 C-18.37 94.53, -19.11 94.74, -20.43 95.14 M-20.25 95.43 C-21.1 95.64, -21.96 95.68, -22.92 96.1 M-20.31 95.15 C-20.95 95.4, -21.62 95.5, -23.25 95.71 M-23.34 95.59 C-24.25 95.77, -24.57 96.31, -25.83 96.59 M-23.09 95.79 C-24.07 95.81, -24.86 96.15, -25.84 96.43 M-25.99 96.26 C-27.28 96.49, -27.81 96.86, -28.99 96.84 M-26 96.34 C-27.02 96.53, -28.05 96.54, -28.83 96.78 M-28.74 96.66 C-28.36 96.94, -28.25 97.24, -27.78 97.55 M-28.71 96.66 C-28.55 96.94, -28.34 97.06, -27.81 97.56 M-27.86 97.49 C-27.71 97.81, -27.36 98.28, -26.94 98.6 M-27.9 97.61 C-27.55 97.94, -27.24 98.3, -27.07 98.61 M-27.02 98.74 C-26.89 98.98, -26.52 99.29, -26.15 99.8 M-27 98.65 C-26.76 99.05, -26.52 99.42, -26.23 99.82 M-26.39 99.9 C-25.96 100.37, -25.87 100.75, -25.65 101.26 M-26.23 99.86 C-25.98 100.35, -25.87 100.8, -25.64 101.33 M-25.63 101.44 C-25.48 101.58, -25.25 102.24, -24.88 103.13 M-25.62 101.29 C-25.52 101.71, -25.34 102.2, -25.04 103.05 M-25.1 102.8 C-24.96 103.41, -24.59 104.06, -24.65 104.93 M-24.98 102.93 C-24.85 103.62, -24.8 104.21, -24.55 104.81 M-24.41 104.83 C-24.49 105.39, -24.54 106.38, -24.42 106.65 M-24.65 104.8 C-24.48 105.68, -24.31 106.35, -24.37 106.8 M-24.31 107.07 C-24.17 107.17, -24.23 107.69, -24.23 109.08 M-24.29 106.95 C-24.21 107.47, -24.3 108.23, -24.32 109.08 M-24.02 109.11 C-24.53 110.19, -24.31 111.38, -24.32 112.22 M-24.22 109.05 C-24.07 110.26, -24.24 111.35, -24.18 112.41 M-24.37 112.19 C-24.06 113.41, -24.03 114.25, -24 115.66 M-24.18 112.51 C-24.1 113.35, -24.15 114.05, -24.08 115.3 M-24.37 115.3 C-24.07 116.36, -24.39 117.47, -24.01 118.15 M-24.09 115.53 C-24.35 116.48, -24.13 117.68, -24.36 118.34 M-24.35 118.12 C-24.15 118.92, -24.31 119.61, -24.29 120.89 M-24.3 118.18 C-24.37 118.87, -24.24 119.69, -24.14 120.89 M-24.38 120.75 C-24.32 121.71, -24.06 122.69, -24.16 122.89 M-24.14 120.78 C-24.21 121.57, -24.22 122.25, -24.35 123.05 M-24.28 123.22 C-24.25 123.52, -24.39 124.33, -24.21 124.96 M-24.18 123.03 C-24.33 123.54, -24.32 123.8, -24.21 124.97 M-24.31 124.95 C-24.22 125.13, -24.23 125.36, -24.23 125.74 M-24.29 124.99 C-24.26 125.18, -24.23 125.38, -24.29 125.77 M-24.23 125.82 C-24.33 126.02, -24.3 126.28, -24.24 126.43 M-24.3 125.76 C-24.3 126.04, -24.27 126.24, -24.3 126.44 M-24.26 126.43 C-24.3 126.56, -24.29 126.82, -24.3 127.02 M-24.28 126.44 C-24.26 126.61, -24.28 126.83, -24.28 127.06 M-24.27 127.04 C-24.28 127.19, -24.33 127.34, -24.27 127.46 M-24.27 127.03 C-24.29 127.2, -24.28 127.37, -24.3 127.5 M-24.3 127.56 C-24.3 127.69, -24.26 127.92, -24.21 128.24 M-24.27 127.5 C-24.28 127.63, -24.26 127.84, -24.24 128.18 M-24.25 128.17 C-24.2 128.46, -24.05 128.69, -23.99 128.87 M-24.24 128.16 C-24.2 128.35, -24.14 128.57, -24.05 128.82 M-24.1 128.79 C-24.01 129.05, -23.8 129.23, -23.76 129.46 M-24.05 128.83 C-23.94 129.08, -23.81 129.26, -23.71 129.5 M-23.73 129.54 C-23.59 129.65, -23.52 129.83, -23.24 129.96 M-23.72 129.47 C-23.61 129.67, -23.49 129.81, -23.27 130.06 M-23.19 130.06 C-23.07 130.16, -22.83 130.31, -22.59 130.49 M-23.23 130.01 C-23.08 130.12, -22.84 130.28, -22.63 130.47 M-22.59 130.53 C-22.39 130.54, -22.27 130.67, -21.78 130.74 M-22.64 130.5 C-22.4 130.51, -22.22 130.59, -21.84 130.74 M-21.74 130.84 C-21.56 130.82, -21.02 130.78, -20.93 130.82 M-21.81 130.73 C-21.53 130.78, -21.11 130.77, -20.82 130.88 M-20.95 130.93 C-20.39 130.75, -19.91 130.68, -19.79 130.64 M-20.82 130.87 C-20.58 130.87, -20.21 130.8, -19.69 130.74 M-19.51 130.47 C-19.21 130.45, -18.49 130.52, -17.29 129.93 M-19.67 130.73 C-18.84 130.38, -17.85 129.93, -17.18 129.89 M-17.14 130.04 C-16.46 129.41, -16.06 129.48, -14.8 128.78 M-17.12 129.95 C-16.43 129.69, -15.83 129.28, -14.85 128.86 M-14.64 128.63 C-13.87 128.25, -13.39 128.18, -12.34 127.66 M-14.87 128.92 C-14.04 128.47, -13.56 128.36, -12.49 127.74 M-12.35 127.85 C-11.52 127.48, -10.81 127.3, -10.31 126.61 M-12.39 127.89 C-11.4 127.44, -10.61 126.96, -10.09 126.6 M-9.8 126.52 C-9.07 126.09, -7.9 124.85, -5.8 123.88 M-10.3 126.59 C-8.87 126.16, -8.05 125.3, -5.5 123.84 M-5.65 123.81 C-3.72 123.29, -2.48 122.54, -1.46 121.53 M-5.79 124.32 C-4.58 123.3, -3.31 122.37, -1.47 121.08 M-1.33 121.07 C-0.58 120.77, 0.68 119.9, 3.17 118.28 M-1.33 121.33 C0.31 120.26, 1.68 118.58, 2.69 118.02 M2.97 118.07 C3.74 116.27, 5.45 115.32, 6.65 114.07 M2.87 118.21 C3.65 117.4, 4.69 116.21, 6.34 114.34 M6.21 114.51 C7.58 113.48, 8.49 111.91, 9.73 110.3 M6.7 114.58 C8.13 113.07, 9.44 111.65, 10.18 110.78 M9.78 110.22 C11.12 109.84, 11.73 108.27, 13.55 107 M10.21 110.75 C10.96 109.51, 11.61 108.7, 13.34 106.7 M13.68 106.52 C14.34 104.94, 15.16 103.92, 15.69 102.15 M13.29 106.77 C14.02 105.44, 14.74 104.13, 16.06 102.23 M15.62 102.39 C16.5 100.7, 17.53 99.09, 18.69 98.07 M16.31 102.6 C16.98 100.57, 18.21 98.88, 18.83 97.87 M18.6 97.87 C19.12 97.39, 19.24 96.86, 19.87 95.75 M18.7 98.02 C19.25 97.09, 19.64 96.12, 19.87 95.5 M19.61 95.58 C20.14 94.77, 20.33 94.3, 21.15 93.14 M19.76 95.44 C20.3 94.8, 20.5 93.77, 20.97 93.24 M21.04 93.22 C21.04 92.83, 21.22 91.84, 22.08 90.53 M20.79 93.17 C21.23 92.36, 21.48 91.47, 21.81 90.68 M22 90.63 C21.95 89.61, 22.65 89.09, 22.58 88.49 M21.87 90.71 C22.28 89.95, 22.35 89.21, 22.83 88.37 M22.6 88.25 C22.97 87.52, 23.06 86.57, 23.53 85.85 M22.66 88.32 C23.03 87.77, 23.06 87.24, 23.65 85.76 M23.54 85.68 C23.56 85.19, 23.76 84.79, 24.32 82.95 M23.5 85.72 C23.61 84.88, 23.92 84.12, 24.2 83.08 M24.14 83.43 C24.61 82.51, 24.61 81.75, 25.03 80.84 M24.19 83.28 C24.32 82.34, 24.53 81.63, 24.79 80.65 M24.53 80.38 C24.81 79.61, 24.95 78.62, 25.47 78.13 M24.83 80.67 C24.87 79.88, 25.09 79.02, 25.4 77.85 M25.3 78.22 C25.22 77.53, 25.28 76.51, 25.89 75.47 M25.39 78.04 C25.47 77.12, 25.52 76.15, 25.72 75.31 M25.39 75.18 C25.54 74.31, 25.94 73.1, 25.97 72.47 M25.78 75.25 C25.83 74.53, 25.86 74.1, 25.8 72.58 M26.07 72.63 C25.99 71.52, 26.13 70.44, 26.05 70.02 M25.9 72.49 C26.03 71.83, 26.1 71.33, 26.13 69.76 M26.1 69.8 C25.98 68.89, 25.9 68.46, 26.15 67.16 M26.03 69.78 C26 68.98, 26.21 67.98, 26.04 67.06 M26.3 67.31 C26.21 66.24, 26.47 65.48, 26.05 63.93 M26.03 66.99 C26.04 66.24, 26.21 65.52, 25.95 63.66 M26.18 63.59 C25.9 63.02, 26 61.96, 26.09 59.92 M26.08 63.66 C26.04 62.71, 25.86 62.09, 25.64 60.31 M26 60.48 C25.98 59.75, 25.46 58.97, 25.3 57.1 M25.66 60.33 C25.68 58.98, 25.44 57.94, 25.38 56.73 M25.58 57.16 C25.45 56.14, 25.03 55.06, 24.99 53.82 M25.49 56.94 C25.3 55.48, 24.84 54.32, 24.75 53.73 M25.12 53.88 C24.73 52.3, 24.64 51.88, 24.08 50.5 M24.82 53.58 C24.51 52.21, 24.18 51.13, 24.13 50.23 M23.98 50.04 C23.96 49.31, 23.16 48.54, 23.34 47.11 M23.94 50.23 C23.8 49.36, 23.39 48.11, 23.06 47.07 M22.85 47.09 C23.02 45.97, 22.31 44.86, 22.16 44.01 M23.22 47.19 C22.68 45.96, 22.23 44.99, 22.01 44.06 M21.86 44.07 C21.66 43.33, 21.49 43, 20.71 40.83 M22.22 44.13 C21.58 43.06, 21.19 41.84, 20.83 41 M20.78 41.08 C20.71 40.34, 19.87 39.06, 19.43 37.94 M20.78 40.84 C20.52 39.94, 20 39.14, 19.49 37.86 M19.79 38.17 C19.08 36.79, 18.39 36.22, 17.8 35.35 M19.44 37.97 C19.26 37.29, 18.75 36.23, 18.17 35.07 M18.33 34.88 C17.69 34.22, 16.81 33.13, 16.54 32.26 M17.91 35.09 C17.57 34.46, 17.25 33.89, 16.4 32.34 M16.52 32.32 C16 31.15, 15.19 30.66, 14.41 29.81 M16.42 32.13 C15.73 31.39, 15.21 30.43, 14.74 29.69 M14.69 29.53 C14.07 28.56, 13.32 27.48, 12.95 26.72 M14.57 29.73 C14.21 28.83, 13.51 27.69, 12.94 26.91 M12.84 26.84 C12.29 26.28, 11.31 25.22, 10.78 24.69 M12.68 27.06 C12.41 26.28, 11.88 25.46, 10.7 24.55 M10.8 24.18 C10.5 23.92, 9.62 23.56, 8.89 22.06 M10.91 24.46 C10.2 23.8, 9.67 23.17, 8.68 22.06 M9.02 21.81 C8.44 21.59, 7.27 20.84, 6.31 19.88 M8.73 21.93 C8.08 21.49, 7.58 20.74, 6.4 19.52 M6.75 19.96 C5.85 18.92, 5.15 18.32, 4.05 17.48 M6.6 19.5 C5.92 19.2, 5.44 18.47, 4.19 17.34 M4.14 17.66 C3.72 17.06, 3.07 16.48, 1.46 15.32 M4.16 17.29 C3.29 16.69, 2.56 16.01, 1.74 15.37 M1.74 15.5 C0.95 14.84, -0.41 13.89, -0.49 13.17 M1.86 15.3 C1.11 14.82, 0.59 14.53, -0.91 13.32 M-0.67 13.26 C-1.26 12.89, -2.04 12.51, -3.51 11.64 M-0.79 13.43 C-1.73 12.92, -2.5 12.02, -3.53 11.44 M-3.27 11.37 C-4.54 11.06, -4.94 10.6, -6.1 9.72 M-3.27 11.57 C-4.08 10.81, -4.93 10.58, -6 9.66 M-6.1 9.8 C-7.08 9.06, -8.06 8.57, -9.19 8.23 M-6.17 9.69 C-7.22 9.16, -7.96 8.64, -8.81 7.95 M-8.85 8.23 C-9.9 7.95, -10.49 7.35, -12.12 6.78 M-8.86 8.21 C-9.75 7.83, -10.48 7.32, -11.73 6.74 M-12.09 6.89 C-13.19 6.17, -14.06 5.77, -15.11 5.19 M-11.99 6.46 C-12.57 6.43, -13.18 5.98, -14.96 5.34 M-15.13 5.47 C-15.26 5, -16.08 4.53, -17.77 4.39 M-14.8 5.35 C-15.95 4.78, -17.14 4.28, -17.77 3.99 M-17.82 3.89 C-18.76 3.91, -19.39 3.66, -20.99 3.31 M-17.94 4.19 C-18.61 3.73, -19.38 3.62, -21 2.96 M-21.13 3.2 C-21.92 2.91, -22.14 2.37, -24.1 2.31 M-21.12 3.02 C-22.16 2.61, -23.51 2.27, -24.05 2.24 M-24.32 1.8 C-25.49 1.74, -26.63 1.54, -27.43 1.46 M-24.32 2.07 C-24.89 1.99, -25.62 1.81, -27.4 1.35 M-27.43 1.57 C-28.5 1.04, -29.49 0.87, -30.76 0.67 M-27.33 1.47 C-28.02 1.31, -28.87 1.24, -30.85 0.7 M-30.5 0.74 C-31.89 0.3, -33.32 0.12, -33.93 0.57 M-30.74 0.67 C-31.84 0.53, -33.06 0.46, -34.11 0.32 M-34.12 0.1 C-35.57 0.59, -36.68 0.34, -37.27 -0.01 M-34.07 0.51 C-34.81 0.48, -35.43 0.2, -37.39 -0.03 M-37.19 -0.16 C-38.93 -0.02, -40.12 -0.12, -40.87 0.25 M-37.45 -0.06 C-38.81 0.2, -39.74 -0.02, -40.91 -0.14 M-40.92 0 C-40.92 0, -40.92 0, -40.92 0 M-40.92 0 C-40.92 0, -40.92 0, -40.92 0" stroke="#000000" stroke-width="1" fill="none"></path></g></g><g stroke-linecap="round"><g transform="translate(386.11338770231424 106.25019841292243) rotate(0 -1.974703670080828 -1.082736968955885)" fill-rule="evenodd"><path d="M-2.36 -2.05 C-2.36 -2.05, -2.36 -2.05, -2.36 -2.05 M-2.36 -2.05 C-2.36 -2.05, -2.36 -2.05, -2.36 -2.05 M-2.27 -0.43 C-2.27 -0.43, -2.27 -0.43, -2.27 -0.43 M-2.27 -0.43 C-2.27 -0.43, -2.27 -0.43, -2.27 -0.43" stroke="black" stroke-width="0.5" fill="none"></path><path d="M-1.09 -0.69 C-1.09 -0.69, -1.09 -0.69, -1.09 -0.69 M-1.09 -0.69 C-1.09 -0.69, -1.09 -0.69, -1.09 -0.69 M-1.09 -0.67 C-1.15 -0.63, -1.21 -0.55, -1.24 -0.47 M-1.08 -0.68 C-1.14 -0.63, -1.2 -0.57, -1.26 -0.49 M-1.26 -0.48 C-1.36 -0.46, -1.43 -0.43, -1.52 -0.4 M-1.27 -0.47 C-1.35 -0.44, -1.43 -0.42, -1.56 -0.37 M-1.56 -0.37 C-1.63 -0.39, -1.7 -0.39, -1.89 -0.34 M-1.54 -0.36 C-1.67 -0.36, -1.8 -0.37, -1.9 -0.37 M-1.85 -0.36 C-2.05 -0.46, -2.2 -0.48, -2.28 -0.47 M-1.89 -0.38 C-1.99 -0.4, -2.12 -0.43, -2.24 -0.47 M-2.27 -0.45 C-2.37 -0.52, -2.5 -0.64, -2.6 -0.65 M-2.24 -0.48 C-2.32 -0.54, -2.45 -0.58, -2.58 -0.7 M-2.56 -0.67 C-2.66 -0.74, -2.68 -0.83, -2.79 -0.94 M-2.56 -0.69 C-2.64 -0.76, -2.7 -0.82, -2.79 -0.95 M-2.79 -0.95 C-2.86 -1.08, -2.85 -1.16, -2.89 -1.23 M-2.79 -0.95 C-2.83 -1.04, -2.85 -1.14, -2.9 -1.22 M-2.91 -1.21 C-2.87 -1.3, -2.87 -1.34, -2.84 -1.48 M-2.88 -1.21 C-2.86 -1.31, -2.86 -1.42, -2.86 -1.48 M-2.85 -1.47 C-2.8 -1.56, -2.71 -1.61, -2.7 -1.72 M-2.86 -1.5 C-2.79 -1.54, -2.75 -1.61, -2.67 -1.71 M-2.67 -1.72 C-2.57 -1.72, -2.45 -1.75, -2.37 -1.78 M-2.69 -1.69 C-2.6 -1.72, -2.5 -1.75, -2.4 -1.8 M-2.39 -1.81 C-2.31 -1.83, -2.21 -1.79, -2.06 -1.78 M-2.4 -1.82 C-2.31 -1.82, -2.18 -1.81, -2.07 -1.81 M-2.09 -1.82 C-1.92 -1.79, -1.79 -1.75, -1.67 -1.69 M-2.05 -1.83 C-1.92 -1.76, -1.82 -1.73, -1.67 -1.68 M-1.71 -1.69 C-1.62 -1.68, -1.51 -1.57, -1.39 -1.53 M-1.68 -1.69 C-1.56 -1.63, -1.48 -1.55, -1.36 -1.49 M-1.36 -1.5 C-1.31 -1.39, -1.23 -1.36, -1.13 -1.2 M-1.35 -1.5 C-1.31 -1.44, -1.25 -1.36, -1.15 -1.25 M-1.12 -1.24 C-1.14 -1.14, -1.1 -1.03, -1.06 -0.93 M-1.16 -1.23 C-1.13 -1.18, -1.09 -1.12, -1.04 -0.94 M-1.06 -0.94 C-1.07 -0.85, -1.11 -0.76, -1.09 -0.68 M-1.05 -0.95 C-1.07 -0.87, -1.06 -0.78, -1.09 -0.69 M-1.09 -0.69 C-1.09 -0.69, -1.09 -0.69, -1.09 -0.69 M-1.09 -0.69 C-1.09 -0.69, -1.09 -0.69, -1.09 -0.69" stroke="#000000" stroke-width="1" fill="none"></path></g></g><g stroke-linecap="round"><g transform="translate(389.3895482535624 109.63448294566155) rotate(0 -1.8375629295075555 -1.9737139711572524)" fill-rule="evenodd"><path d="M-2.9 -2.52 C-2.9 -2.52, -2.9 -2.52, -2.9 -2.52 M-2.9 -2.52 C-2.9 -2.52, -2.9 -2.52, -2.9 -2.52 M-2.6 -1.58 C-2.6 -1.58, -2.6 -1.58, -2.6 -1.58 M-2.6 -1.58 C-2.6 -1.58, -2.6 -1.58, -2.6 -1.58" stroke="black" stroke-width="0.5" fill="none"></path><path d="M-1.07 -1.13 C-1.07 -1.13, -1.07 -1.13, -1.07 -1.13 M-1.07 -1.13 C-1.07 -1.13, -1.07 -1.13, -1.07 -1.13 M-1.05 -1.13 C-1.15 -1.1, -1.19 -1.03, -1.34 -0.99 M-1.06 -1.12 C-1.13 -1.1, -1.2 -1.04, -1.37 -0.98 M-1.36 -0.99 C-1.48 -0.96, -1.59 -0.96, -1.75 -0.99 M-1.34 -0.99 C-1.48 -0.98, -1.65 -1.01, -1.71 -1.01 M-1.71 -1.01 C-1.89 -1.05, -2.02 -1.12, -2.05 -1.12 M-1.7 -0.99 C-1.86 -1.06, -2.02 -1.13, -2.1 -1.13 M-2.08 -1.17 C-2.25 -1.27, -2.34 -1.37, -2.43 -1.42 M-2.11 -1.13 C-2.18 -1.22, -2.27 -1.3, -2.43 -1.43 M-2.41 -1.45 C-2.5 -1.62, -2.66 -1.76, -2.66 -1.81 M-2.44 -1.41 C-2.54 -1.6, -2.62 -1.74, -2.72 -1.81 M-2.69 -1.84 C-2.71 -1.9, -2.78 -2.02, -2.82 -2.2 M-2.71 -1.82 C-2.75 -1.96, -2.77 -2.09, -2.83 -2.18 M-2.84 -2.23 C-2.85 -2.28, -2.81 -2.4, -2.81 -2.53 M-2.83 -2.2 C-2.82 -2.31, -2.82 -2.47, -2.8 -2.56 M-2.8 -2.55 C-2.76 -2.64, -2.67 -2.71, -2.62 -2.81 M-2.79 -2.54 C-2.76 -2.62, -2.74 -2.68, -2.63 -2.82 M-2.61 -2.85 C-2.56 -2.85, -2.45 -2.93, -2.37 -2.97 M-2.64 -2.83 C-2.54 -2.88, -2.45 -2.91, -2.36 -2.96 M-2.37 -2.97 C-2.25 -2.95, -2.17 -2.94, -1.96 -2.96 M-2.34 -2.98 C-2.2 -2.95, -2.08 -2.96, -1.98 -2.98 M-1.99 -2.95 C-1.89 -2.87, -1.71 -2.85, -1.58 -2.81 M-2 -2.98 C-1.92 -2.92, -1.83 -2.91, -1.61 -2.8 M-1.62 -2.81 C-1.5 -2.68, -1.37 -2.57, -1.25 -2.5 M-1.63 -2.79 C-1.51 -2.74, -1.42 -2.63, -1.24 -2.53 M-1.25 -2.53 C-1.2 -2.35, -1.03 -2.26, -1.04 -2.13 M-1.25 -2.5 C-1.16 -2.41, -1.06 -2.25, -0.99 -2.15 M-1 -2.14 C-0.93 -2.04, -0.95 -1.94, -0.84 -1.78 M-1.01 -2.14 C-0.97 -2, -0.91 -1.89, -0.89 -1.75 M-0.88 -1.78 C-0.87 -1.7, -0.85 -1.62, -0.87 -1.43 M-0.87 -1.76 C-0.89 -1.67, -0.89 -1.59, -0.88 -1.39 M-0.88 -1.41 C-0.94 -1.37, -0.99 -1.27, -1.07 -1.12 M-0.89 -1.41 C-0.95 -1.31, -0.99 -1.24, -1.08 -1.12 M-1.07 -1.13 C-1.07 -1.13, -1.07 -1.13, -1.07 -1.13 M-1.07 -1.13 C-1.07 -1.13, -1.07 -1.13, -1.07 -1.13" stroke="#000000" stroke-width="1" fill="none"></path></g></g><g stroke-linecap="round"><g transform="translate(391.6847602813511 113.67390711267802) rotate(0 -1.8647073641804468 -2.488567068123416)" fill-rule="evenodd"><path d="M-2.59 -3.58 C-2.59 -3.58, -2.59 -3.58, -2.59 -3.58 M-2.59 -3.58 C-2.59 -3.58, -2.59 -3.58, -2.59 -3.58 M-2.44 -1.76 C-2.44 -1.76, -2.44 -1.76, -2.44 -1.76 M-2.44 -1.76 C-2.44 -1.76, -2.44 -1.76, -2.44 -1.76" stroke="black" stroke-width="0.5" fill="none"></path><path d="M-1.1 -1.4 C-1.1 -1.4, -1.1 -1.4, -1.1 -1.4 M-1.1 -1.4 C-1.1 -1.4, -1.1 -1.4, -1.1 -1.4 M-1.11 -1.41 C-1.2 -1.35, -1.24 -1.32, -1.46 -1.31 M-1.1 -1.39 C-1.2 -1.37, -1.26 -1.35, -1.44 -1.29 M-1.45 -1.31 C-1.55 -1.34, -1.68 -1.37, -1.85 -1.32 M-1.45 -1.27 C-1.56 -1.31, -1.7 -1.32, -1.86 -1.34 M-1.87 -1.39 C-1.99 -1.47, -2.14 -1.48, -2.21 -1.55 M-1.84 -1.35 C-1.99 -1.44, -2.15 -1.53, -2.23 -1.59 M-2.28 -1.65 C-2.36 -1.69, -2.44 -1.74, -2.58 -1.99 M-2.23 -1.59 C-2.33 -1.68, -2.43 -1.79, -2.59 -1.96 M-2.61 -1.93 C-2.72 -2.16, -2.8 -2.25, -2.84 -2.39 M-2.58 -1.98 C-2.7 -2.1, -2.76 -2.3, -2.84 -2.44 M-2.87 -2.41 C-2.84 -2.59, -2.88 -2.72, -2.91 -2.87 M-2.85 -2.45 C-2.87 -2.56, -2.88 -2.72, -2.89 -2.89 M-2.95 -2.93 C-2.86 -3.03, -2.85 -3.18, -2.81 -3.26 M-2.91 -2.9 C-2.86 -3.04, -2.87 -3.17, -2.83 -3.29 M-2.82 -3.3 C-2.78 -3.32, -2.7 -3.41, -2.57 -3.61 M-2.81 -3.28 C-2.79 -3.36, -2.74 -3.41, -2.58 -3.58 M-2.61 -3.57 C-2.47 -3.58, -2.41 -3.68, -2.24 -3.69 M-2.59 -3.56 C-2.48 -3.61, -2.35 -3.67, -2.23 -3.71 M-2.24 -3.66 C-2.08 -3.63, -1.93 -3.6, -1.85 -3.6 M-2.25 -3.67 C-2.13 -3.66, -2.04 -3.65, -1.86 -3.61 M-1.83 -3.66 C-1.71 -3.56, -1.67 -3.48, -1.45 -3.43 M-1.86 -3.63 C-1.71 -3.56, -1.63 -3.48, -1.43 -3.37 M-1.44 -3.42 C-1.33 -3.3, -1.22 -3.15, -1.07 -3.03 M-1.42 -3.38 C-1.38 -3.3, -1.26 -3.19, -1.1 -2.99 M-1.11 -3.05 C-1 -2.84, -0.99 -2.79, -0.84 -2.52 M-1.07 -3.01 C-1.03 -2.84, -0.92 -2.69, -0.87 -2.56 M-0.86 -2.5 C-0.82 -2.41, -0.79 -2.21, -0.81 -2.07 M-0.86 -2.56 C-0.83 -2.44, -0.83 -2.35, -0.78 -2.11 M-0.81 -2.08 C-0.83 -1.9, -0.86 -1.75, -0.9 -1.72 M-0.79 -2.1 C-0.8 -1.97, -0.83 -1.81, -0.85 -1.7 M-0.87 -1.69 C-0.98 -1.61, -1.02 -1.49, -1.1 -1.4 M-0.88 -1.68 C-0.93 -1.58, -1.02 -1.51, -1.1 -1.4 M-1.1 -1.4 C-1.1 -1.4, -1.1 -1.4, -1.1 -1.4 M-1.1 -1.4 C-1.1 -1.4, -1.1 -1.4, -1.1 -1.4" stroke="#000000" stroke-width="1" fill="none"></path></g></g><g stroke-linecap="round"><g transform="translate(395.80388255255167 117.98016787506452) rotate(0 -2.4422172408449683 -2.330523327981382)" fill-rule="evenodd"><path d="M-3.63 -3.16 C-3.63 -3.16, -3.63 -3.16, -3.63 -3.16 M-3.63 -3.16 C-3.63 -3.16, -3.63 -3.16, -3.63 -3.16 M-2.81 -1.34 C-2.81 -1.34, -2.81 -1.34, -2.81 -1.34 M-2.81 -1.34 C-2.81 -1.34, -2.81 -1.34, -2.81 -1.34" stroke="black" stroke-width="0.5" fill="none"></path><path d="M-1.39 -1.34 C-1.39 -1.34, -1.39 -1.34, -1.39 -1.34 M-1.39 -1.34 C-1.39 -1.34, -1.39 -1.34, -1.39 -1.34 M-1.4 -1.35 C-1.48 -1.24, -1.59 -1.22, -1.77 -1.15 M-1.39 -1.36 C-1.53 -1.24, -1.68 -1.17, -1.74 -1.13 M-1.76 -1.1 C-1.91 -1.09, -2.06 -1.12, -2.14 -1.11 M-1.72 -1.12 C-1.87 -1.15, -2 -1.14, -2.16 -1.1 M-2.21 -1.11 C-2.32 -1.16, -2.36 -1.15, -2.61 -1.24 M-2.17 -1.11 C-2.33 -1.18, -2.47 -1.18, -2.65 -1.29 M-2.71 -1.31 C-2.86 -1.45, -2.99 -1.5, -3.13 -1.62 M-2.65 -1.26 C-2.76 -1.35, -2.89 -1.44, -3.09 -1.59 M-3.07 -1.65 C-3.23 -1.75, -3.23 -1.8, -3.42 -2.02 M-3.11 -1.62 C-3.2 -1.74, -3.36 -1.87, -3.48 -2.03 M-3.45 -2.02 C-3.54 -2.18, -3.59 -2.33, -3.64 -2.5 M-3.49 -2.06 C-3.51 -2.19, -3.6 -2.3, -3.67 -2.49 M-3.7 -2.49 C-3.66 -2.63, -3.68 -2.74, -3.65 -2.93 M-3.67 -2.49 C-3.67 -2.64, -3.66 -2.75, -3.68 -2.96 M-3.68 -2.96 C-3.6 -3.01, -3.59 -3.07, -3.54 -3.34 M-3.66 -2.96 C-3.63 -3.09, -3.55 -3.19, -3.51 -3.31 M-3.49 -3.3 C-3.36 -3.41, -3.33 -3.44, -3.15 -3.51 M-3.48 -3.32 C-3.41 -3.35, -3.37 -3.39, -3.17 -3.51 M-3.12 -3.5 C-2.97 -3.49, -2.83 -3.54, -2.68 -3.56 M-3.13 -3.51 C-3.04 -3.52, -2.96 -3.55, -2.69 -3.56 M-2.74 -3.49 C-2.53 -3.49, -2.34 -3.44, -2.27 -3.39 M-2.72 -3.53 C-2.57 -3.51, -2.42 -3.44, -2.21 -3.39 M-2.25 -3.37 C-2.15 -3.29, -2.02 -3.23, -1.78 -3.09 M-2.21 -3.4 C-2.07 -3.26, -1.9 -3.19, -1.74 -3.06 M-1.8 -3.03 C-1.63 -2.97, -1.62 -2.81, -1.37 -2.6 M-1.75 -3.08 C-1.62 -2.89, -1.49 -2.75, -1.42 -2.61 M-1.36 -2.6 C-1.36 -2.44, -1.23 -2.34, -1.19 -2.18 M-1.41 -2.6 C-1.33 -2.45, -1.28 -2.26, -1.23 -2.13 M-1.21 -2.17 C-1.17 -1.99, -1.17 -1.84, -1.24 -1.69 M-1.22 -2.13 C-1.22 -2.03, -1.19 -1.92, -1.22 -1.7 M-1.21 -1.74 C-1.27 -1.6, -1.3 -1.51, -1.39 -1.34 M-1.2 -1.69 C-1.24 -1.61, -1.31 -1.51, -1.39 -1.33 M-1.39 -1.34 C-1.39 -1.34, -1.39 -1.34, -1.39 -1.34 M-1.39 -1.34 C-1.39 -1.34, -1.39 -1.34, -1.39 -1.34" stroke="#000000" stroke-width="1" fill="none"></path></g></g><g stroke-linecap="round"><g transform="translate(401.0528197423292 119.0046117004602) rotate(0 -3.088757703572128 -1.3162914596286441)" fill-rule="evenodd"><path d="M-4.1 -2.24 C-4.1 -2.24, -4.1 -2.24, -4.1 -2.24 M-4.1 -2.24 C-4.1 -2.24, -4.1 -2.24, -4.1 -2.24 M-3.64 -0.38 C-3.64 -0.38, -3.64 -0.38, -3.64 -0.38 M-3.64 -0.38 C-3.64 -0.38, -3.64 -0.38, -3.64 -0.38" stroke="black" stroke-width="0.5" fill="none"></path><path d="M-1.69 -0.89 C-1.69 -0.89, -1.69 -0.89, -1.69 -0.89 M-1.69 -0.89 C-1.69 -0.89, -1.69 -0.89, -1.69 -0.89 M-1.7 -0.87 C-1.74 -0.75, -1.87 -0.68, -1.94 -0.52 M-1.71 -0.9 C-1.75 -0.8, -1.84 -0.67, -1.91 -0.55 M-1.88 -0.59 C-2 -0.53, -2.16 -0.38, -2.31 -0.34 M-1.9 -0.56 C-2.09 -0.46, -2.24 -0.37, -2.29 -0.36 M-2.3 -0.37 C-2.48 -0.27, -2.59 -0.25, -2.78 -0.27 M-2.31 -0.35 C-2.52 -0.32, -2.66 -0.28, -2.84 -0.25 M-2.85 -0.29 C-3.04 -0.29, -3.15 -0.34, -3.39 -0.37 M-2.8 -0.25 C-2.93 -0.27, -3.06 -0.28, -3.36 -0.38 M-3.42 -0.38 C-3.61 -0.39, -3.76 -0.48, -3.87 -0.59 M-3.39 -0.33 C-3.55 -0.45, -3.71 -0.51, -3.88 -0.59 M-3.87 -0.6 C-4.01 -0.69, -4.14 -0.78, -4.26 -0.93 M-3.9 -0.57 C-3.99 -0.69, -4.06 -0.78, -4.25 -0.93 M-4.24 -0.92 C-4.31 -1.04, -4.35 -1.11, -4.45 -1.34 M-4.25 -0.94 C-4.33 -1.02, -4.37 -1.12, -4.49 -1.34 M-4.48 -1.28 C-4.46 -1.44, -4.45 -1.63, -4.5 -1.71 M-4.48 -1.33 C-4.49 -1.46, -4.47 -1.64, -4.47 -1.73 M-4.46 -1.69 C-4.42 -1.89, -4.31 -1.98, -4.23 -2.1 M-4.48 -1.72 C-4.41 -1.83, -4.35 -1.92, -4.24 -2.07 M-4.23 -2.03 C-4.13 -2.08, -4.08 -2.15, -3.88 -2.33 M-4.24 -2.05 C-4.12 -2.13, -4.01 -2.2, -3.88 -2.28 M-3.81 -2.27 C-3.71 -2.26, -3.55 -2.37, -3.36 -2.37 M-3.84 -2.29 C-3.76 -2.29, -3.6 -2.3, -3.36 -2.38 M-3.34 -2.38 C-3.17 -2.31, -3.02 -2.32, -2.83 -2.25 M-3.37 -2.35 C-3.21 -2.32, -3.13 -2.3, -2.8 -2.28 M-2.76 -2.23 C-2.66 -2.24, -2.45 -2.09, -2.26 -2 M-2.81 -2.25 C-2.6 -2.18, -2.44 -2.12, -2.27 -2.03 M-2.26 -2.05 C-2.14 -1.89, -2.09 -1.82, -1.94 -1.66 M-2.27 -2.03 C-2.19 -1.97, -2.09 -1.89, -1.88 -1.67 M-1.92 -1.66 C-1.86 -1.55, -1.83 -1.52, -1.68 -1.33 M-1.88 -1.71 C-1.82 -1.56, -1.75 -1.47, -1.68 -1.31 M-1.72 -1.32 C-1.69 -1.15, -1.69 -1.01, -1.69 -0.91 M-1.67 -1.29 C-1.69 -1.17, -1.69 -1.02, -1.68 -0.91 M-1.69 -0.89 C-1.69 -0.89, -1.69 -0.89, -1.69 -0.89 M-1.69 -0.89 C-1.69 -0.89, -1.69 -0.89, -1.69 -0.89" stroke="#000000" stroke-width="1" fill="none"></path></g></g><g stroke-linecap="round"><g transform="translate(406.7479323819518 119.33224315259116) rotate(0 -3.1892671818432063 -0.5889699058961071)" fill-rule="evenodd"><path d="M-4.36 -1.14 C-4.36 -1.14, -4.36 -1.14, -4.36 -1.14 M-4.36 -1.14 C-4.36 -1.14, -4.36 -1.14, -4.36 -1.14 M-4.15 0.2 C-4.15 0.2, -4.15 0.2, -4.15 0.2 M-4.15 0.2 C-4.15 0.2, -4.15 0.2, -4.15 0.2" stroke="black" stroke-width="0.5" fill="none"></path><path d="M-1.76 -0.6 C-1.76 -0.6, -1.76 -0.6, -1.76 -0.6 M-1.76 -0.6 C-1.76 -0.6, -1.76 -0.6, -1.76 -0.6 M-1.74 -0.56 C-1.77 -0.5, -1.85 -0.4, -1.82 -0.19 M-1.76 -0.58 C-1.81 -0.46, -1.83 -0.33, -1.86 -0.2 M-1.9 -0.16 C-1.99 -0.1, -2 -0.01, -2.16 0.16 M-1.87 -0.23 C-1.94 -0.13, -2.02 0, -2.18 0.12 M-2.19 0.11 C-2.24 0.22, -2.36 0.26, -2.62 0.38 M-2.17 0.1 C-2.32 0.22, -2.46 0.24, -2.6 0.34 M-2.64 0.29 C-2.74 0.38, -2.91 0.36, -3.2 0.39 M-2.6 0.35 C-2.8 0.38, -3 0.41, -3.2 0.45 M-3.21 0.38 C-3.29 0.4, -3.44 0.4, -3.75 0.37 M-3.16 0.41 C-3.43 0.39, -3.63 0.37, -3.75 0.37 M-3.75 0.36 C-3.84 0.31, -3.92 0.27, -4.21 0.13 M-3.72 0.35 C-3.86 0.33, -3.96 0.27, -4.21 0.14 M-4.21 0.15 C-4.28 0.11, -4.3 0.05, -4.53 -0.19 M-4.22 0.13 C-4.28 0.06, -4.37 -0.03, -4.54 -0.16 M-4.48 -0.15 C-4.54 -0.26, -4.64 -0.44, -4.62 -0.52 M-4.53 -0.18 C-4.56 -0.3, -4.62 -0.45, -4.64 -0.53 M-4.6 -0.59 C-4.65 -0.65, -4.59 -0.72, -4.56 -0.96 M-4.63 -0.54 C-4.63 -0.66, -4.59 -0.8, -4.53 -0.96 M-4.49 -0.91 C-4.4 -1.04, -4.33 -1.16, -4.27 -1.25 M-4.51 -0.94 C-4.45 -1.04, -4.37 -1.12, -4.22 -1.27 M-4.21 -1.27 C-4.03 -1.34, -3.98 -1.42, -3.78 -1.52 M-4.23 -1.29 C-4.12 -1.31, -4.01 -1.37, -3.8 -1.49 M-3.79 -1.46 C-3.58 -1.5, -3.45 -1.58, -3.19 -1.62 M-3.77 -1.46 C-3.53 -1.53, -3.31 -1.56, -3.22 -1.57 M-3.17 -1.6 C-3.11 -1.54, -2.88 -1.52, -2.62 -1.48 M-3.19 -1.56 C-2.98 -1.55, -2.8 -1.51, -2.64 -1.51 M-2.66 -1.48 C-2.45 -1.47, -2.34 -1.42, -2.15 -1.33 M-2.64 -1.51 C-2.52 -1.44, -2.38 -1.36, -2.16 -1.31 M-2.15 -1.32 C-2.07 -1.26, -2.07 -1.14, -1.9 -0.98 M-2.2 -1.28 C-2.08 -1.19, -2.01 -1.1, -1.88 -0.97 M-1.89 -0.98 C-1.84 -0.87, -1.81 -0.76, -1.77 -0.58 M-1.86 -0.98 C-1.86 -0.88, -1.82 -0.78, -1.77 -0.6 M-1.76 -0.6 C-1.76 -0.6, -1.76 -0.6, -1.76 -0.6 M-1.76 -0.6 C-1.76 -0.6, -1.76 -0.6, -1.76 -0.6" stroke="#000000" stroke-width="1" fill="none"></path></g></g><g stroke-linecap="round"><g transform="translate(412.2590048745066 118.98439411026555) rotate(0 -3.1629963234967704 -0.1949928822515119)" fill-rule="evenodd"><path d="M-4.12 -0.93 C-4.12 -0.93, -4.12 -0.93, -4.12 -0.93 M-4.12 -0.93 C-4.12 -0.93, -4.12 -0.93, -4.12 -0.93 M-4.36 0.45 C-4.36 0.45, -4.36 0.45, -4.36 0.45 M-4.36 0.45 C-4.36 0.45, -4.36 0.45, -4.36 0.45" stroke="black" stroke-width="0.5" fill="none"></path><path d="M-1.74 -0.46 C-1.74 -0.46, -1.74 -0.46, -1.74 -0.46 M-1.74 -0.46 C-1.74 -0.46, -1.74 -0.46, -1.74 -0.46 M-1.7 -0.44 C-1.76 -0.38, -1.78 -0.2, -1.77 -0.05 M-1.72 -0.48 C-1.75 -0.33, -1.76 -0.2, -1.78 -0.06 M-1.74 -0.1 C-1.84 0.07, -1.91 0.12, -1.99 0.3 M-1.8 -0.05 C-1.89 0.1, -1.96 0.21, -2.03 0.3 M-2.04 0.35 C-2.09 0.42, -2.2 0.44, -2.41 0.62 M-2.05 0.3 C-2.14 0.41, -2.33 0.52, -2.44 0.59 M-2.5 0.62 C-2.53 0.62, -2.68 0.66, -3.03 0.81 M-2.44 0.62 C-2.61 0.69, -2.79 0.7, -2.97 0.77 M-3.04 0.83 C-3.21 0.84, -3.42 0.8, -3.54 0.85 M-3 0.76 C-3.17 0.79, -3.33 0.8, -3.54 0.78 M-3.55 0.81 C-3.74 0.78, -3.9 0.71, -4.06 0.63 M-3.56 0.79 C-3.66 0.77, -3.8 0.73, -4.05 0.65 M-4.04 0.66 C-4.1 0.64, -4.18 0.55, -4.43 0.4 M-4.06 0.68 C-4.15 0.6, -4.26 0.51, -4.4 0.42 M-4.39 0.43 C-4.43 0.28, -4.54 0.23, -4.56 0.09 M-4.42 0.43 C-4.46 0.28, -4.53 0.15, -4.57 0.04 M-4.62 0.02 C-4.58 -0.08, -4.54 -0.24, -4.56 -0.34 M-4.58 0.03 C-4.55 -0.12, -4.54 -0.24, -4.56 -0.35 M-4.51 -0.31 C-4.45 -0.47, -4.38 -0.67, -4.28 -0.75 M-4.54 -0.34 C-4.46 -0.49, -4.36 -0.64, -4.29 -0.72 M-4.29 -0.68 C-4.2 -0.84, -4.11 -0.87, -3.91 -1.06 M-4.31 -0.72 C-4.17 -0.78, -4.08 -0.9, -3.88 -1.02 M-3.85 -1 C-3.72 -1.08, -3.65 -1.09, -3.39 -1.14 M-3.86 -0.99 C-3.7 -1.06, -3.5 -1.16, -3.34 -1.21 M-3.37 -1.24 C-3.19 -1.17, -3.06 -1.18, -2.75 -1.17 M-3.33 -1.18 C-3.16 -1.22, -2.97 -1.21, -2.77 -1.22 M-2.75 -1.17 C-2.61 -1.14, -2.42 -1.07, -2.31 -1.08 M-2.78 -1.23 C-2.64 -1.21, -2.49 -1.13, -2.29 -1.1 M-2.3 -1.05 C-2.21 -1.05, -2.05 -0.96, -1.92 -0.83 M-2.26 -1.07 C-2.17 -1.04, -2.1 -0.97, -1.91 -0.83 M-1.91 -0.82 C-1.87 -0.72, -1.81 -0.63, -1.72 -0.48 M-1.92 -0.84 C-1.85 -0.71, -1.78 -0.6, -1.74 -0.46 M-1.74 -0.46 C-1.74 -0.46, -1.74 -0.46, -1.74 -0.46 M-1.74 -0.46 C-1.74 -0.46, -1.74 -0.46, -1.74 -0.46" stroke="#000000" stroke-width="1" fill="none"></path></g></g><g stroke-linecap="round" transform="translate(354.79630730304547 177.58501790510587) rotate(0 72 34)"><path d="M0.99 0.21 C55.41 1.33, 113.03 -0.72, 142.06 -0.29 M0.24 0.7 C37.02 0.25, 74.96 1.02, 143.05 0.07 M144.08 -1.16 C145.04 23.84, 144.76 50.92, 144.89 69.93 M144.71 0.17 C144.24 24.22, 143.75 50.51, 143.22 68.92 M142.48 68.15 C98.42 68.52, 56.95 70.1, -2 68.01 M144.09 68.44 C111.99 70.01, 81.87 69.1, 0.39 67.38 M0.46 69.34 C-1.27 40.39, 0.98 17, -1.18 1.68 M-0.26 68.24 C0.81 47.91, 0.38 27.41, -0.87 -0.42" stroke="#000000" stroke-width="1" fill="none"></path></g><g transform="translate(360.79630730304547 185.58501790510587) rotate(0 66 26)"><text x="66" y="19" font-family="Virgil, Segoe UI Emoji" font-size="20px" fill="#000000" text-anchor="middle" style="white-space: pre;" direction="ltr">GitHub pages </text><text x="66" y="45" font-family="Virgil, Segoe UI Emoji" font-size="20px" fill="#000000" text-anchor="middle" style="white-space: pre;" direction="ltr">repo</text></g><g stroke-linecap="round"><g transform="translate(122.79630730304547 209.58501790510587) rotate(0 111.04734792783856 0.18444331330246655)"><path d="M-0.54 0.31 C36.43 0.14, 185.38 -0.25, 222.63 -0.05 M1.38 -0.57 C38.09 -0.11, 184.68 0.94, 221.49 0.94" stroke="#000000" stroke-width="1" fill="none"></path></g><g transform="translate(122.79630730304547 209.58501790510587) rotate(0 111.04734792783856 0.18444331330246655)"><path d="M193.77 10.47 C201.85 7.44, 214.86 3.62, 219.64 0.93 M193.81 12.01 C203.18 7.43, 213.84 2.82, 222.22 0.64" stroke="#000000" stroke-width="1" fill="none"></path></g><g transform="translate(122.79630730304547 209.58501790510587) rotate(0 111.04734792783856 0.18444331330246655)"><path d="M193.86 -10.06 C202.08 -5.5, 215.05 -1.74, 219.64 0.93 M193.9 -8.51 C203.19 -5.44, 213.82 -2.4, 222.22 0.64" stroke="#000000" stroke-width="1" fill="none"></path></g></g><g stroke-linecap="round" transform="translate(662.7963073030455 84.58501790510587) rotate(0 85.5 42.5)"><path d="M1.55 -0.03 C58.29 0.21, 117.3 0.21, 172.72 -0.47 M0.23 -0.12 C40.56 -1.73, 81.16 -1.61, 171.42 0.49 M171.14 -1.25 C172.38 28.09, 170.2 57.78, 171.04 84.76 M170.56 0.7 C171.87 24.69, 171.98 47.82, 170.81 85.87 M172.86 85.06 C128.05 86.92, 82.54 86.44, 1.48 85.36 M171.92 85.69 C126.47 84.43, 81.85 84.23, -0.39 85.58 M-1.48 84.75 C0.8 61.16, 2.37 37.39, -1.14 1.86 M-0.55 85.21 C0.33 56.49, -0.75 26.95, -0.78 -0.63" stroke="#000000" stroke-width="1" fill="none"></path></g><g transform="translate(689.2963073030455 114.08501790510587) rotate(0 59 13)"><text x="59" y="19" font-family="Virgil, Segoe UI Emoji" font-size="20px" fill="#000000" text-anchor="middle" style="white-space: pre;" direction="ltr">riedmann.dev</text></g><g stroke-linecap="round" transform="translate(663.2963073030455 222.08501790510587) rotate(0 85.5 42.5)"><path d="M0.1 -1.48 C39.28 0.37, 76.45 -0.08, 172.75 1.09 M-0.73 0.01 C60.01 0.41, 121.35 1.38, 170.37 -0.66 M170.87 -0.14 C172.92 28.06, 169.86 52.25, 171.4 83.93 M170.37 -0.98 C170.07 27.02, 171.09 56.11, 170.75 84.69 M169.41 86.66 C132.02 83.64, 93.16 85.25, 1.52 84.85 M171.66 84.76 C104.29 85.98, 36.91 86.61, -0.78 84.03 M-1.18 84.05 C1.35 65.25, -0.14 44.64, 1.25 1.24 M0.29 85.42 C-1.25 63.69, -1.65 43.97, -0.88 -0.83" stroke="#000000" stroke-width="1" fill="none"></path></g><g transform="translate(718.2963073030455 251.58501790510587) rotate(0 30.5 13)"><text x="30.5" y="19" font-family="Virgil, Segoe UI Emoji" font-size="20px" fill="#000000" text-anchor="middle" style="white-space: pre;" direction="ltr">dev.to</text></g><g stroke-linecap="round"><g transform="translate(501.79630730304547 205.58501790510587) rotate(0 78.59806560776667 -38.715047497446676)"><path d="M-0.72 1.16 C25.13 -11.74, 129.45 -63.54, 155.82 -76.65 M1.11 0.72 C27.24 -12.62, 131.93 -65.73, 157.91 -78.59" stroke="#000000" stroke-width="1" fill="none"></path></g><g transform="translate(501.79630730304547 205.58501790510587) rotate(0 78.59806560776667 -38.715047497446676)"><path d="M139.26 -58.74 C145.23 -63.71, 151.26 -74.24, 156.26 -78.96 M137.75 -56.38 C141.97 -60.28, 146.97 -66.83, 157.43 -78.89" stroke="#000000" stroke-width="1" fill="none"></path></g><g transform="translate(501.79630730304547 205.58501790510587) rotate(0 78.59806560776667 -38.715047497446676)"><path d="M130.05 -77.07 C139.47 -75.35, 148.84 -79.23, 156.26 -78.96 M128.54 -74.72 C134.56 -74.69, 141.5 -77.36, 157.43 -78.89" stroke="#000000" stroke-width="1" fill="none"></path></g></g><g stroke-linecap="round"><g transform="translate(501.79630730304547 210.58501790510587) rotate(0 79.8567880467977 28.591735292226076)"><path d="M0.44 -0.78 C26.68 8.81, 131.6 48.3, 158.21 57.96 M-0.8 1.43 C25.76 10.65, 133.72 46.81, 160.51 56.35" stroke="#000000" stroke-width="1" fill="none"></path></g><g transform="translate(501.79630730304547 210.58501790510587) rotate(0 79.8567880467977 28.591735292226076)"><path d="M129.21 55.56 C143.03 58.4, 152.68 57.92, 159.41 55.62 M131.19 56.53 C137.75 57.21, 146.41 57.16, 160.78 56.13" stroke="#000000" stroke-width="1" fill="none"></path></g><g transform="translate(501.79630730304547 210.58501790510587) rotate(0 79.8567880467977 28.591735292226076)"><path d="M135.89 36.16 C147.35 46.09, 154.57 52.66, 159.41 55.62 M137.86 37.12 C142.74 42.71, 149.73 47.55, 160.78 56.13" stroke="#000000" stroke-width="1" fill="none"></path></g></g><g transform="translate(158.79630730304547 180.08501790510587) rotate(0 57 13)"><text x="0" y="19" font-family="Virgil, Segoe UI Emoji" font-size="20px" fill="#000000" text-anchor="start" style="white-space: pre;" direction="ltr">push commit</text></g></svg>